<?xml version="1.0" encoding="UTF-8" standalone="no"?>
<!-- Created with Inkscape (http://www.inkscape.org/) -->

<svg
   xmlns:dc="http://purl.org/dc/elements/1.1/"
   xmlns:cc="http://creativecommons.org/ns#"
   xmlns:rdf="http://www.w3.org/1999/02/22-rdf-syntax-ns#"
   xmlns:svg="http://www.w3.org/2000/svg"
   xmlns="http://www.w3.org/2000/svg"
   xmlns:sodipodi="http://sodipodi.sourceforge.net/DTD/sodipodi-0.dtd"
   xmlns:inkscape="http://www.inkscape.org/namespaces/inkscape"
   width="36"
   height="32"
   viewBox="0 0 9.5249998 8.4666665"
   version="1.1"
   id="svg2167"
   inkscape:version="0.92.3 (2405546, 2018-03-11)"
   sodipodi:docname="hg-logo.svg"
   inkscape:export-filename="C:\Users\dirkh\Desktop\Rastergrafik.png"
   inkscape:export-xdpi="899"
   inkscape:export-ydpi="899">
  <defs
     id="defs2161" />
  <sodipodi:namedview
     id="base"
     pagecolor="#ffffff"
     bordercolor="#666666"
     borderopacity="1.0"
     inkscape:pageopacity="0.0"
     inkscape:pageshadow="2"
     inkscape:zoom="9.8429264"
     inkscape:cx="29.524885"
     inkscape:cy="15.792269"
     inkscape:document-units="mm"
     inkscape:current-layer="layer1"
     showgrid="false"
     units="px"
     inkscape:window-width="1360"
     inkscape:window-height="745"
     inkscape:window-x="-8"
     inkscape:window-y="-8"
     inkscape:window-maximized="1"
     inkscape:showpageshadow="false"
     borderlayer="true"
     inkscape:snap-nodes="false"
     inkscape:snap-others="true"
     inkscape:pagecheckerboard="true"
     showguides="false">
    <inkscape:grid
       type="xygrid"
       id="grid827" />
  </sodipodi:namedview>
  <metadata
     id="metadata2164">
    <rdf:RDF>
      <cc:Work
         rdf:about="">
        <dc:format>image/svg+xml</dc:format>
        <dc:type
           rdf:resource="http://purl.org/dc/dcmitype/StillImage" />
        <dc:title></dc:title>
      </cc:Work>
    </rdf:RDF>
  </metadata>
  <g
     inkscape:label="Ebene 1"
     inkscape:groupmode="layer"
     id="layer1"
     transform="translate(0,-288.53334)">
    <g
       id="g1952"
       transform="translate(-2.4820139e-8,-5.8341802e-6)">
      <path
         id="path4-2-1"
         d="m 7.1607111,293.0411 c -0.3683369,1.94012 -1.9742183,3.1906 -3.6588752,2.84903 -1.6846575,-0.3418 -2.73004673,-2.29962 -2.4251317,-4.20337 0.046796,-0.29159 -0.34243997,-0.37872 -0.38927153,-0.0866 -0.35225563,2.19981 0.85009793,4.28395 2.73545863,4.74123 1.8855594,0.45724 3.7225092,-1.08198 4.1270701,-3.21357 0.054935,-0.29026 -0.3342706,-0.37643 -0.3892503,-0.0866 z"
         style="fill:#2d6fc8;fill-opacity:1;stroke:#2d6fc8;stroke-width:0.97075623;stroke-miterlimit:4;stroke-dasharray:none;stroke-opacity:1"
         inkscape:connector-curvature="0" />
      <path
         sodipodi:nodetypes="ccsscsssccssccssccccc"
         d="m 8.4438002,293.12677 c -0.097442,0.29578 -0.4440773,0.52802 -0.7586726,0.41873 l -0.4160743,0.81895 c -0.3410785,0.67135 -0.9632057,0.42841 -0.7302628,-0.28098 l 0.2764361,-0.84007 c -0.3063497,-0.10649 -0.4868195,-0.46101 -0.357769,-0.85343 l 0.9038459,-2.74684 c 0.078708,-0.23914 0.3929595,-0.14055 0.3082732,0.11708 l -0.6681747,2.0306 0.2604202,0.0905 0.6742491,-2.04907 c 0.072314,-0.21978 0.376579,-0.12986 0.2966931,0.11308 l -0.6712047,2.03984 0.2692546,0.0935 0.6734543,-2.04669 c 0.075622,-0.22945 0.3694754,-0.13748 0.287964,0.10987 l -0.670411,2.03746 0.2649211,0.0922 0.6734307,-2.04668 c 0.074609,-0.2271 0.3816469,-0.1305 0.3009639,0.11441 z"
         id="path2360-2"
         style="fill:#2d6fc8;fill-opacity:1;stroke:#2d6fc8;stroke-width:0.01931844;stroke-opacity:1"
         inkscape:connector-curvature="0" />
      <ellipse
         transform="matrix(0.97610744,0.21728846,-0.17230001,0.98504452,0,0)"
         ry="0.958336"
         rx="0.75869882"
         id="circle6-1-5-0"
         cy="282.56976"
         cx="52.824524"
         style="fill:#2d6fc8;fill-opacity:1;stroke:#2d6fc8;stroke-width:0.47149798;stroke-miterlimit:4;stroke-dasharray:none;stroke-opacity:1" />
      <ellipse
         transform="matrix(0.97610744,0.21728846,-0.17230001,0.98504452,0,0)"
         ry="0.958336"
         rx="0.75869882"
         id="circle6-1-5-0-0"
         cy="282.50821"
         cx="55.368336"
         style="fill:#2d6fc8;fill-opacity:1;stroke:#2d6fc8;stroke-width:0.47149798;stroke-miterlimit:4;stroke-dasharray:none;stroke-opacity:1" />
    </g>
  </g>
</svg>
