<?xml version="1.0" encoding="UTF-8" standalone="no"?>
<!-- Created with Inkscape (http://www.inkscape.org/) -->

<svg
   xmlns:dc="http://purl.org/dc/elements/1.1/"
   xmlns:cc="http://creativecommons.org/ns#"
   xmlns:rdf="http://www.w3.org/1999/02/22-rdf-syntax-ns#"
   xmlns:svg="http://www.w3.org/2000/svg"
   xmlns="http://www.w3.org/2000/svg"
   xmlns:sodipodi="http://sodipodi.sourceforge.net/DTD/sodipodi-0.dtd"
   xmlns:inkscape="http://www.inkscape.org/namespaces/inkscape"
   width="35"
   height="32"
   viewBox="0 0 9.2604165 8.4666665"
   version="1.1"
   id="svg2167"
   inkscape:version="0.92.3 (2405546, 2018-03-11)"
   sodipodi:docname="bigger-hg-logo.svg"
   inkscape:export-filename="C:\Users\dirkh\Desktop\Rastergrafik.png"
   inkscape:export-xdpi="899"
   inkscape:export-ydpi="899">
  <defs
     id="defs2161" />
  <sodipodi:namedview
     id="base"
     pagecolor="#ffffff"
     bordercolor="#666666"
     borderopacity="1.0"
     inkscape:pageopacity="0.0"
     inkscape:pageshadow="2"
     inkscape:zoom="9.8429264"
     inkscape:cx="-0.36843371"
     inkscape:cy="19.337644"
     inkscape:document-units="mm"
     inkscape:current-layer="layer1"
     showgrid="false"
     units="px"
     inkscape:window-width="1360"
     inkscape:window-height="745"
     inkscape:window-x="-8"
     inkscape:window-y="-8"
     inkscape:window-maximized="1"
     inkscape:showpageshadow="false"
     borderlayer="true"
     inkscape:snap-nodes="false"
     inkscape:snap-others="true"
     inkscape:pagecheckerboard="true">
    <inkscape:grid
       type="xygrid"
       id="grid827" />
  </sodipodi:namedview>
  <metadata
     id="metadata2164">
    <rdf:RDF>
      <cc:Work
         rdf:about="">
        <dc:format>image/svg+xml</dc:format>
        <dc:type
           rdf:resource="http://purl.org/dc/dcmitype/StillImage" />
        <dc:title></dc:title>
      </cc:Work>
    </rdf:RDF>
  </metadata>
  <g
     inkscape:label="Ebene 1"
     inkscape:groupmode="layer"
     id="layer1"
     transform="translate(0,-288.53334)">
    <path
       inkscape:connector-curvature="0"
       style="fill:#ffffff;fill-opacity:1;stroke:#ffffff;stroke-width:0.83145314;stroke-miterlimit:4;stroke-dasharray:none;stroke-opacity:1"
       d="m 7.0299513,292.87162 c -0.3678043,2.03844 -1.9713637,3.35228 -3.6535848,2.99341 -1.6822216,-0.35913 -2.72609924,-2.41616 -2.42162508,-4.41638 0.0467285,-0.30637 -0.34194484,-0.39791 -0.38870869,-0.091 -0.3517463,2.31129 0.84886877,4.50104 2.73150337,4.98149 1.882833,0.48041 3.7171267,-1.13681 4.1211027,-3.37641 0.054856,-0.30497 -0.3337873,-0.39551 -0.3886875,-0.091 z"
       id="path4-2-1" />
    <path
       inkscape:connector-curvature="0"
       style="fill:#ffffff;fill-opacity:1;stroke:#ffffff;stroke-width:0.01925312;stroke-opacity:1"
       id="path2360-2"
       d="m 8.2820911,292.96173 c -0.092107,0.3108 -0.4197643,0.55484 -0.7171356,0.43999 l -0.3932944,0.86054 c -0.3224046,0.70544 -0.9104706,0.45016 -0.6902812,-0.29525 l 0.2613013,-0.88272 C 6.4531041,292.97239 6.2825149,292.59987 6.4045,292.18752 l 0.8543606,-2.88632 c 0.074398,-0.25128 0.3714452,-0.14769 0.2913954,0.12302 l -0.6315924,2.13371 0.2461623,0.0951 0.6373342,-2.15312 c 0.068355,-0.23095 0.3559615,-0.13647 0.2804493,0.11881 l -0.6344566,2.14342 0.2545132,0.0982 0.6365829,-2.15062 c 0.071482,-0.2411 0.3492467,-0.14446 0.2721981,0.11546 l -0.6337063,2.14092 0.2504168,0.0969 0.6365606,-2.1506 c 0.070524,-0.23864 0.360752,-0.13713 0.2844863,0.12021 z"
       sodipodi:nodetypes="ccsscsssccssccssccccc" />
    <ellipse
       style="fill:#ffffff;fill-opacity:1;stroke:#ffffff;stroke-width:0.45464489;stroke-miterlimit:4;stroke-dasharray:none;stroke-opacity:1"
       cx="57.939804"
       cy="283.60754"
       id="circle6-1-5-0"
       rx="0.76774806"
       ry="0.88054872"
       transform="matrix(0.98047947,0.19662149,-0.19060746,0.98166634,0,0)" />
    <ellipse
       style="fill:#ffffff;fill-opacity:1;stroke:#ffffff;stroke-width:0.45464489;stroke-miterlimit:4;stroke-dasharray:none;stroke-opacity:1"
       cx="60.4828"
       cy="283.62494"
       id="circle6-1-5-0-0"
       rx="0.76774806"
       ry="0.88054872"
       transform="matrix(0.98047947,0.19662149,-0.19060746,0.98166634,0,0)" />
  </g>
</svg>
