<?xml version="1.0" encoding="UTF-8" standalone="no"?>
<!-- Created with Inkscape (http://www.inkscape.org/) -->

<svg
   xmlns:dc="http://purl.org/dc/elements/1.1/"
   xmlns:cc="http://creativecommons.org/ns#"
   xmlns:rdf="http://www.w3.org/1999/02/22-rdf-syntax-ns#"
   xmlns:svg="http://www.w3.org/2000/svg"
   xmlns="http://www.w3.org/2000/svg"
   xmlns:sodipodi="http://sodipodi.sourceforge.net/DTD/sodipodi-0.dtd"
   xmlns:inkscape="http://www.inkscape.org/namespaces/inkscape"
   width="32"
   height="32"
   viewBox="0 0 8.4666665 8.4666665"
   version="1.1"
   id="svg2167"
   inkscape:version="0.92.3 (2405546, 2018-03-11)"
   sodipodi:docname="happy-logo_viel.svg"
   inkscape:export-filename="C:\Users\dirkh\Pictures\Rastergrafik.png"
   inkscape:export-xdpi="899"
   inkscape:export-ydpi="899">
  <defs
     id="defs2161" />
  <sodipodi:namedview
     id="base"
     pagecolor="#ffffff"
     bordercolor="#666666"
     borderopacity="1.0"
     inkscape:pageopacity="0.0"
     inkscape:pageshadow="2"
     inkscape:zoom="4.9217644"
     inkscape:cx="17.093642"
     inkscape:cy="-14.577075"
     inkscape:document-units="mm"
     inkscape:current-layer="layer1"
     showgrid="false"
     units="px"
     inkscape:window-width="1360"
     inkscape:window-height="745"
     inkscape:window-x="-8"
     inkscape:window-y="-8"
     inkscape:window-maximized="1">
    <inkscape:grid
       type="xygrid"
       id="grid827" />
  </sodipodi:namedview>
  <metadata
     id="metadata2164">
    <rdf:RDF>
      <cc:Work
         rdf:about="">
        <dc:format>image/svg+xml</dc:format>
        <dc:type
           rdf:resource="http://purl.org/dc/dcmitype/StillImage" />
        <dc:title></dc:title>
      </cc:Work>
    </rdf:RDF>
  </metadata>
  <g
     inkscape:label="Ebene 1"
     inkscape:groupmode="layer"
     id="layer1"
     transform="translate(0,-288.53334)">
    <path
       style="opacity:1;fill:#3951b5;fill-opacity:1;fill-rule:nonzero;stroke:none;stroke-width:0.19322433;stroke-linecap:round;stroke-linejoin:bevel;stroke-miterlimit:4;stroke-dasharray:none;stroke-dashoffset:0;stroke-opacity:1;paint-order:markers fill stroke"
       d="m 12.431549,306.08496 3.96875,-1.41111 v 8.46667 l -3.96875,-1.41111 z"
       id="rect5071"
       inkscape:connector-curvature="0"
       sodipodi:nodetypes="ccccc"
       inkscape:export-filename="C:\Users\dirkh\Pictures\Rastergrafik.png"
       inkscape:export-xdpi="899"
       inkscape:export-ydpi="899" />
    <path
       inkscape:connector-curvature="0"
       style="opacity:1;fill:#ffd759;fill-opacity:1;fill-rule:nonzero;stroke:none;stroke-width:0.19322433;stroke-linecap:round;stroke-linejoin:bevel;stroke-miterlimit:4;stroke-dasharray:none;stroke-dashoffset:0;stroke-opacity:1;paint-order:markers fill stroke"
       d="m 16.929549,304.67385 3.96875,1.41112 v 5.64445 l -3.96875,1.4111 z"
       id="rect5071-4"
       sodipodi:nodetypes="ccccc" />
    <g
       style="fill:#3951b5;fill-opacity:1;stroke:#3951b5;stroke-width:20.57860565;stroke-miterlimit:4;stroke-dasharray:none;stroke-opacity:1"
       id="g10-0-7"
       transform="matrix(0.00927169,0,0,0.0101476,16.71696,306.26846)">
      <path
         id="path4-2-1"
         d="m 383.164,237.123 c -1.332,80.699 -65.514,144.873 -146.213,146.206 -80.702,1.332 -144.907,-67.52 -146.206,-146.206 -0.198,-12.052 -18.907,-12.071 -18.709,0 1.5,90.921 73.993,163.414 164.914,164.914 90.929,1.5 163.455,-76.25 164.922,-164.914 0.199,-12.071 -18.51,-12.052 -18.708,0 z"
         style="fill:#3951b5;fill-opacity:1;stroke:#3951b5;stroke-width:20.57860565;stroke-miterlimit:4;stroke-dasharray:none;stroke-opacity:1"
         inkscape:connector-curvature="0" />
      <circle
         id="circle6-1-5"
         r="37.216"
         cy="155.22701"
         cx="164.937"
         style="fill:#3951b5;fill-opacity:1;stroke:#3951b5;stroke-width:20.57860565;stroke-miterlimit:4;stroke-dasharray:none;stroke-opacity:1" />
      <circle
         id="circle8-0-8"
         r="37.216"
         cy="155.22701"
         cx="305.664"
         style="fill:#3951b5;fill-opacity:1;stroke:#3951b5;stroke-width:20.57860565;stroke-miterlimit:4;stroke-dasharray:none;stroke-opacity:1" />
    </g>
    <path
       inkscape:connector-curvature="0"
       style="fill:#ffffff;fill-opacity:0.99215686;stroke:none;stroke-width:0.01996264"
       id="path2360-2"
       d="m 15.540228,309.92228 c 0,0.31293 -0.272798,0.64794 -0.626529,0.64794 l 0.01169,1.10418 c 0.0079,0.74971 -0.989666,0.53453 -0.989666,-0.21523 v -0.88895 c -0.344473,0 -0.644281,-0.27721 -0.644281,-0.69255 v -2.90678 c 0,-0.25301 0.349942,-0.2628 0.349942,0.01 v 2.14883 H 13.9343 v -2.16838 c 0,-0.23255 0.336857,-0.24749 0.336857,0.01 v 2.15861 h 0.302678 v -2.16582 c 0,-0.24283 0.327092,-0.25261 0.327092,0.01 v 2.15607 h 0.297806 l -1e-5,-2.16584 c 1e-5,-0.24028 0.34168,-0.25005 0.34168,0.01 z"
       sodipodi:nodetypes="ccsscsssccssccssccccc" />
    <path
       style="opacity:1;fill:#ffffff;fill-opacity:1;fill-rule:nonzero;stroke:none;stroke-width:0.34874803;stroke-linecap:round;stroke-linejoin:bevel;stroke-miterlimit:4;stroke-dasharray:none;stroke-dashoffset:0;stroke-opacity:1;paint-order:markers fill stroke"
       d="m 13.886757,310.21806 h 1.058334 v 2.42246 l -1.058334,-0.366 z"
       id="rect829"
       inkscape:connector-curvature="0"
       sodipodi:nodetypes="ccccc" />
    <path
       style="opacity:1;fill:#333366;fill-opacity:1;fill-rule:nonzero;stroke:none;stroke-width:0.19322433;stroke-linecap:round;stroke-linejoin:bevel;stroke-miterlimit:4;stroke-dasharray:none;stroke-dashoffset:0;stroke-opacity:1;paint-order:markers fill stroke"
       d="m -10.200493,295.89804 3.9687499,-1.41111 v 8.46667 l -3.9687499,-1.41111 z"
       id="rect5071-2"
       inkscape:connector-curvature="0"
       sodipodi:nodetypes="ccccc"
       inkscape:export-filename="C:\Users\dirkh\Pictures\Rastergrafik.png"
       inkscape:export-xdpi="899"
       inkscape:export-ydpi="899" />
    <path
       inkscape:connector-curvature="0"
       style="opacity:1;fill:#ffd759;fill-opacity:1;fill-rule:nonzero;stroke:none;stroke-width:0.19322433;stroke-linecap:round;stroke-linejoin:bevel;stroke-miterlimit:4;stroke-dasharray:none;stroke-dashoffset:0;stroke-opacity:1;paint-order:markers fill stroke"
       d="m -5.7024931,294.48693 3.96875,1.41112 v 5.64445 l -3.96875,1.4111 z"
       id="rect5071-4-9"
       sodipodi:nodetypes="ccccc" />
    <g
       style="fill:#333366;fill-opacity:1;stroke:#333366;stroke-width:20.57860565;stroke-miterlimit:4;stroke-dasharray:none;stroke-opacity:1"
       id="g10-0-7-3"
       transform="matrix(0.00927169,0,0,0.0101476,-5.9150821,296.08153)">
      <path
         id="path4-2-1-0"
         d="m 383.164,237.123 c -1.332,80.699 -65.514,144.873 -146.213,146.206 -80.702,1.332 -144.907,-67.52 -146.206,-146.206 -0.198,-12.052 -18.907,-12.071 -18.709,0 1.5,90.921 73.993,163.414 164.914,164.914 90.929,1.5 163.455,-76.25 164.922,-164.914 0.199,-12.071 -18.51,-12.052 -18.708,0 z"
         style="fill:#333366;fill-opacity:1;stroke:#333366;stroke-width:20.57860565;stroke-miterlimit:4;stroke-dasharray:none;stroke-opacity:1"
         inkscape:connector-curvature="0" />
      <circle
         id="circle6-1-5-1"
         r="37.216"
         cy="155.22701"
         cx="164.937"
         style="fill:#333366;fill-opacity:1;stroke:#333366;stroke-width:20.57860565;stroke-miterlimit:4;stroke-dasharray:none;stroke-opacity:1" />
      <circle
         id="circle8-0-8-6"
         r="37.216"
         cy="155.22701"
         cx="305.664"
         style="fill:#333366;fill-opacity:1;stroke:#333366;stroke-width:20.57860565;stroke-miterlimit:4;stroke-dasharray:none;stroke-opacity:1" />
    </g>
    <path
       inkscape:connector-curvature="0"
       style="fill:#ffffff;fill-opacity:0.99215686;stroke:none;stroke-width:0.01996264"
       id="path2360-2-7"
       d="m -7.0918141,299.73536 c 0,0.31293 -0.272798,0.64794 -0.626529,0.64794 l 0.01169,1.10418 c 0.0079,0.74971 -0.989666,0.53453 -0.989666,-0.21523 v -0.88895 c -0.344473,0 -0.644281,-0.27721 -0.644281,-0.69255 v -2.90678 c 0,-0.25301 0.349942,-0.2628 0.349942,0.01 v 2.14883 h 0.292913 v -2.16838 c 0,-0.23255 0.336857,-0.24749 0.336857,0.01 v 2.15861 h 0.302678 v -2.16582 c 0,-0.24283 0.327092,-0.25261 0.327092,0.01 v 2.15607 h 0.297806 l -10e-6,-2.16584 c 10e-6,-0.24028 0.34168,-0.25005 0.34168,0.01 z"
       sodipodi:nodetypes="ccsscsssccssccssccccc" />
    <path
       style="opacity:1;fill:#ffffff;fill-opacity:1;fill-rule:nonzero;stroke:none;stroke-width:0.34874803;stroke-linecap:round;stroke-linejoin:bevel;stroke-miterlimit:4;stroke-dasharray:none;stroke-dashoffset:0;stroke-opacity:1;paint-order:markers fill stroke"
       d="m -8.7452851,300.03114 h 1.058333 v 2.42246 l -1.058333,-0.366 z"
       id="rect829-8"
       inkscape:connector-curvature="0"
       sodipodi:nodetypes="ccccc" />
    <path
       style="opacity:1;fill:#009900;fill-opacity:1;fill-rule:nonzero;stroke:none;stroke-width:0.19322433;stroke-linecap:round;stroke-linejoin:bevel;stroke-miterlimit:4;stroke-dasharray:none;stroke-dashoffset:0;stroke-opacity:1;paint-order:markers fill stroke"
       d="m -10.729743,304.36471 3.9687499,-1.41111 v 8.46667 l -3.9687499,-1.41111 z"
       id="rect5071-2-3"
       inkscape:connector-curvature="0"
       sodipodi:nodetypes="ccccc"
       inkscape:export-filename="C:\Users\dirkh\Pictures\Rastergrafik.png"
       inkscape:export-xdpi="899"
       inkscape:export-ydpi="899" />
    <path
       inkscape:connector-curvature="0"
       style="opacity:1;fill:#ffd759;fill-opacity:1;fill-rule:nonzero;stroke:none;stroke-width:0.19322433;stroke-linecap:round;stroke-linejoin:bevel;stroke-miterlimit:4;stroke-dasharray:none;stroke-dashoffset:0;stroke-opacity:1;paint-order:markers fill stroke"
       d="m -6.2317431,302.9536 3.96875,1.41112 v 5.64445 l -3.96875,1.4111 z"
       id="rect5071-4-9-0"
       sodipodi:nodetypes="ccccc" />
    <g
       style="fill:#009900;fill-opacity:1;stroke:#009900;stroke-width:20.57860565;stroke-miterlimit:4;stroke-dasharray:none;stroke-opacity:1"
       id="g10-0-7-3-2"
       transform="matrix(0.00927169,0,0,0.0101476,-6.4443321,304.54819)">
      <path
         id="path4-2-1-0-3"
         d="m 383.164,237.123 c -1.332,80.699 -65.514,144.873 -146.213,146.206 -80.702,1.332 -144.907,-67.52 -146.206,-146.206 -0.198,-12.052 -18.907,-12.071 -18.709,0 1.5,90.921 73.993,163.414 164.914,164.914 90.929,1.5 163.455,-76.25 164.922,-164.914 0.199,-12.071 -18.51,-12.052 -18.708,0 z"
         style="fill:#009900;fill-opacity:1;stroke:#009900;stroke-width:20.57860565;stroke-miterlimit:4;stroke-dasharray:none;stroke-opacity:1"
         inkscape:connector-curvature="0" />
      <circle
         id="circle6-1-5-1-7"
         r="37.216"
         cy="155.22701"
         cx="164.937"
         style="fill:#009900;fill-opacity:1;stroke:#009900;stroke-width:20.57860565;stroke-miterlimit:4;stroke-dasharray:none;stroke-opacity:1" />
      <circle
         id="circle8-0-8-6-9"
         r="37.216"
         cy="155.22701"
         cx="305.664"
         style="fill:#009900;fill-opacity:1;stroke:#009900;stroke-width:20.57860565;stroke-miterlimit:4;stroke-dasharray:none;stroke-opacity:1" />
    </g>
    <path
       inkscape:connector-curvature="0"
       style="fill:#ffffff;fill-opacity:0.99215686;stroke:none;stroke-width:0.01996264"
       id="path2360-2-7-6"
       d="m -7.6210641,308.20203 c 0,0.31293 -0.272798,0.64794 -0.626529,0.64794 l 0.01169,1.10418 c 0.0079,0.74971 -0.989666,0.53453 -0.989666,-0.21523 v -0.88895 c -0.344473,0 -0.644281,-0.27721 -0.644281,-0.69255 v -2.90678 c 0,-0.25301 0.349942,-0.2628 0.349942,0.01 v 2.14883 h 0.292913 v -2.16838 c 0,-0.23255 0.336857,-0.24749 0.336857,0.01 v 2.15861 h 0.302678 v -2.16582 c 0,-0.24283 0.327092,-0.25261 0.327092,0.01 v 2.15607 h 0.297806 l -10e-6,-2.16584 c 10e-6,-0.24028 0.34168,-0.25005 0.34168,0.01 z"
       sodipodi:nodetypes="ccsscsssccssccssccccc" />
    <path
       style="opacity:1;fill:#ffffff;fill-opacity:1;fill-rule:nonzero;stroke:none;stroke-width:0.34874803;stroke-linecap:round;stroke-linejoin:bevel;stroke-miterlimit:4;stroke-dasharray:none;stroke-dashoffset:0;stroke-opacity:1;paint-order:markers fill stroke"
       d="m -9.2745351,308.49781 h 1.058333 v 2.42246 l -1.058333,-0.366 z"
       id="rect829-8-5"
       inkscape:connector-curvature="0"
       sodipodi:nodetypes="ccccc" />
    <path
       style="opacity:1;fill:#990000;fill-opacity:1;fill-rule:nonzero;stroke:none;stroke-width:0.19322433;stroke-linecap:round;stroke-linejoin:bevel;stroke-miterlimit:4;stroke-dasharray:none;stroke-dashoffset:0;stroke-opacity:1;paint-order:markers fill stroke"
       d="m 12.592823,287.45805 3.96875,-1.41111 v 8.46667 l -3.96875,-1.41111 z"
       id="rect5071-2-8"
       inkscape:connector-curvature="0"
       sodipodi:nodetypes="ccccc"
       inkscape:export-filename="C:\Users\dirkh\Pictures\Rastergrafik.png"
       inkscape:export-xdpi="899"
       inkscape:export-ydpi="899" />
    <path
       inkscape:connector-curvature="0"
       style="opacity:1;fill:#ffd759;fill-opacity:1;fill-rule:nonzero;stroke:none;stroke-width:0.19322433;stroke-linecap:round;stroke-linejoin:bevel;stroke-miterlimit:4;stroke-dasharray:none;stroke-dashoffset:0;stroke-opacity:1;paint-order:markers fill stroke"
       d="m 17.090823,286.04694 3.96875,1.41112 v 5.64445 l -3.96875,1.4111 z"
       id="rect5071-4-9-9"
       sodipodi:nodetypes="ccccc" />
    <g
       style="fill:#990000;fill-opacity:1;stroke:#990000;stroke-width:20.57860565;stroke-miterlimit:4;stroke-dasharray:none;stroke-opacity:1"
       id="g10-0-7-3-0"
       transform="matrix(0.00927169,0,0,0.0101476,16.878234,287.64153)">
      <path
         id="path4-2-1-0-4"
         d="m 383.164,237.123 c -1.332,80.699 -65.514,144.873 -146.213,146.206 -80.702,1.332 -144.907,-67.52 -146.206,-146.206 -0.198,-12.052 -18.907,-12.071 -18.709,0 1.5,90.921 73.993,163.414 164.914,164.914 90.929,1.5 163.455,-76.25 164.922,-164.914 0.199,-12.071 -18.51,-12.052 -18.708,0 z"
         style="fill:#990000;fill-opacity:1;stroke:#990000;stroke-width:20.57860565;stroke-miterlimit:4;stroke-dasharray:none;stroke-opacity:1"
         inkscape:connector-curvature="0" />
      <circle
         id="circle6-1-5-1-1"
         r="37.216"
         cy="155.22701"
         cx="164.937"
         style="fill:#990000;fill-opacity:1;stroke:#990000;stroke-width:20.57860565;stroke-miterlimit:4;stroke-dasharray:none;stroke-opacity:1" />
      <circle
         id="circle8-0-8-6-0"
         r="37.216"
         cy="155.22701"
         cx="305.664"
         style="fill:#990000;fill-opacity:1;stroke:#990000;stroke-width:20.57860565;stroke-miterlimit:4;stroke-dasharray:none;stroke-opacity:1" />
    </g>
    <path
       inkscape:connector-curvature="0"
       style="fill:#ffffff;fill-opacity:0.99215686;stroke:none;stroke-width:0.01996264"
       id="path2360-2-7-5"
       d="m 15.701502,291.29537 c 0,0.31293 -0.272798,0.64794 -0.626529,0.64794 l 0.01169,1.10418 c 0.0079,0.74971 -0.989666,0.53453 -0.989666,-0.21523 v -0.88895 c -0.344473,0 -0.644281,-0.27721 -0.644281,-0.69255 v -2.90678 c 0,-0.25301 0.349942,-0.2628 0.349942,0.01 v 2.14883 h 0.292913 v -2.16838 c 0,-0.23255 0.336857,-0.24749 0.336857,0.01 v 2.15861 h 0.302678 v -2.16582 c 0,-0.24283 0.327092,-0.25261 0.327092,0.01 v 2.15607 h 0.297806 l -10e-6,-2.16584 c 10e-6,-0.24028 0.34168,-0.25005 0.34168,0.01 z"
       sodipodi:nodetypes="ccsscsssccssccssccccc" />
    <path
       style="opacity:1;fill:#ffffff;fill-opacity:1;fill-rule:nonzero;stroke:none;stroke-width:0.34874803;stroke-linecap:round;stroke-linejoin:bevel;stroke-miterlimit:4;stroke-dasharray:none;stroke-dashoffset:0;stroke-opacity:1;paint-order:markers fill stroke"
       d="m 14.048031,291.59115 h 1.058333 v 2.42246 l -1.058333,-0.366 z"
       id="rect829-8-6"
       inkscape:connector-curvature="0"
       sodipodi:nodetypes="ccccc" />
    <path
       style="opacity:1;fill:#0066cc;fill-opacity:1;fill-rule:nonzero;stroke:none;stroke-width:0.19322433;stroke-linecap:round;stroke-linejoin:bevel;stroke-miterlimit:4;stroke-dasharray:none;stroke-dashoffset:0;stroke-opacity:1;paint-order:markers fill stroke"
       d="m 12.431549,297.61829 3.96875,-1.41111 v 8.46667 l -3.96875,-1.41111 z"
       id="rect5071-2-9"
       inkscape:connector-curvature="0"
       sodipodi:nodetypes="ccccc"
       inkscape:export-filename="C:\Users\dirkh\Pictures\Rastergrafik.png"
       inkscape:export-xdpi="899"
       inkscape:export-ydpi="899" />
    <path
       inkscape:connector-curvature="0"
       style="opacity:1;fill:#ffd759;fill-opacity:1;fill-rule:nonzero;stroke:none;stroke-width:0.19322433;stroke-linecap:round;stroke-linejoin:bevel;stroke-miterlimit:4;stroke-dasharray:none;stroke-dashoffset:0;stroke-opacity:1;paint-order:markers fill stroke"
       d="m 16.929549,296.20718 3.96875,1.41112 v 5.64445 l -3.96875,1.4111 z"
       id="rect5071-4-9-4"
       sodipodi:nodetypes="ccccc" />
    <g
       style="fill:#0066cc;fill-opacity:1;stroke:#0066cc;stroke-width:20.57860565;stroke-miterlimit:4;stroke-dasharray:none;stroke-opacity:1"
       id="g10-0-7-3-6"
       transform="matrix(0.00927169,0,0,0.0101476,16.71696,297.80177)">
      <path
         id="path4-2-1-0-49"
         d="m 383.164,237.123 c -1.332,80.699 -65.514,144.873 -146.213,146.206 -80.702,1.332 -144.907,-67.52 -146.206,-146.206 -0.198,-12.052 -18.907,-12.071 -18.709,0 1.5,90.921 73.993,163.414 164.914,164.914 90.929,1.5 163.455,-76.25 164.922,-164.914 0.199,-12.071 -18.51,-12.052 -18.708,0 z"
         style="fill:#0066cc;fill-opacity:1;stroke:#0066cc;stroke-width:20.57860565;stroke-miterlimit:4;stroke-dasharray:none;stroke-opacity:1"
         inkscape:connector-curvature="0" />
      <circle
         id="circle6-1-5-1-71"
         r="37.216"
         cy="155.22701"
         cx="164.937"
         style="fill:#0066cc;fill-opacity:1;stroke:#0066cc;stroke-width:20.57860565;stroke-miterlimit:4;stroke-dasharray:none;stroke-opacity:1" />
      <circle
         id="circle8-0-8-6-8"
         r="37.216"
         cy="155.22701"
         cx="305.664"
         style="fill:#0066cc;fill-opacity:1;stroke:#0066cc;stroke-width:20.57860565;stroke-miterlimit:4;stroke-dasharray:none;stroke-opacity:1" />
    </g>
    <path
       inkscape:connector-curvature="0"
       style="fill:#ffffff;fill-opacity:0.99215686;stroke:none;stroke-width:0.01996264"
       id="path2360-2-7-3"
       d="m 15.540228,301.45561 c 0,0.31293 -0.272798,0.64794 -0.626529,0.64794 l 0.01169,1.10418 c 0.0079,0.74971 -0.989666,0.53453 -0.989666,-0.21523 v -0.88895 c -0.344473,0 -0.644281,-0.27721 -0.644281,-0.69255 v -2.90678 c 0,-0.25301 0.349942,-0.2628 0.349942,0.01 v 2.14883 h 0.292913 v -2.16838 c 0,-0.23255 0.336857,-0.24749 0.336857,0.01 v 2.15861 h 0.302678 v -2.16582 c 0,-0.24283 0.327092,-0.25261 0.327092,0.01 v 2.15607 h 0.297806 l -10e-6,-2.16584 c 10e-6,-0.24028 0.34168,-0.25005 0.34168,0.01 z"
       sodipodi:nodetypes="ccsscsssccssccssccccc" />
    <path
       style="opacity:1;fill:#ffffff;fill-opacity:1;fill-rule:nonzero;stroke:none;stroke-width:0.34874803;stroke-linecap:round;stroke-linejoin:bevel;stroke-miterlimit:4;stroke-dasharray:none;stroke-dashoffset:0;stroke-opacity:1;paint-order:markers fill stroke"
       d="m 13.886757,301.75139 h 1.058333 v 2.42246 l -1.058333,-0.366 z"
       id="rect829-8-8"
       inkscape:connector-curvature="0"
       sodipodi:nodetypes="ccccc" />
    <path
       style="opacity:1;fill:#000000;fill-opacity:1;fill-rule:nonzero;stroke:none;stroke-width:0.19322433;stroke-linecap:round;stroke-linejoin:bevel;stroke-miterlimit:4;stroke-dasharray:none;stroke-dashoffset:0;stroke-opacity:1;paint-order:markers fill stroke"
       d="m 0.38979765,307.50972 3.96874995,-1.41111 v 8.46667 l -3.96874995,-1.41111 z"
       id="rect5071-2-0"
       inkscape:connector-curvature="0"
       sodipodi:nodetypes="ccccc"
       inkscape:export-filename="C:\Users\dirkh\Pictures\Rastergrafik.png"
       inkscape:export-xdpi="899"
       inkscape:export-ydpi="899" />
    <path
       inkscape:connector-curvature="0"
       style="opacity:1;fill:#ffd759;fill-opacity:1;fill-rule:nonzero;stroke:none;stroke-width:0.19322433;stroke-linecap:round;stroke-linejoin:bevel;stroke-miterlimit:4;stroke-dasharray:none;stroke-dashoffset:0;stroke-opacity:1;paint-order:markers fill stroke"
       d="m 4.8877976,306.09861 3.96875,1.41112 v 5.64445 l -3.96875,1.4111 z"
       id="rect5071-4-9-7"
       sodipodi:nodetypes="ccccc" />
    <g
       style="fill:#000000;fill-opacity:1;stroke:#000000;stroke-width:20.57860565;stroke-miterlimit:4;stroke-dasharray:none;stroke-opacity:1"
       id="g10-0-7-3-1"
       transform="matrix(0.00927169,0,0,0.0101476,4.6752086,307.6932)">
      <path
         id="path4-2-1-0-2"
         d="m 383.164,237.123 c -1.332,80.699 -65.514,144.873 -146.213,146.206 -80.702,1.332 -144.907,-67.52 -146.206,-146.206 -0.198,-12.052 -18.907,-12.071 -18.709,0 1.5,90.921 73.993,163.414 164.914,164.914 90.929,1.5 163.455,-76.25 164.922,-164.914 0.199,-12.071 -18.51,-12.052 -18.708,0 z"
         style="fill:#000000;fill-opacity:1;stroke:#000000;stroke-width:20.57860565;stroke-miterlimit:4;stroke-dasharray:none;stroke-opacity:1"
         inkscape:connector-curvature="0" />
      <circle
         id="circle6-1-5-1-5"
         r="37.216"
         cy="155.22701"
         cx="164.937"
         style="fill:#000000;fill-opacity:1;stroke:#000000;stroke-width:20.57860565;stroke-miterlimit:4;stroke-dasharray:none;stroke-opacity:1" />
      <circle
         id="circle8-0-8-6-3"
         r="37.216"
         cy="155.22701"
         cx="305.664"
         style="fill:#000000;fill-opacity:1;stroke:#000000;stroke-width:20.57860565;stroke-miterlimit:4;stroke-dasharray:none;stroke-opacity:1" />
    </g>
    <path
       inkscape:connector-curvature="0"
       style="fill:#ffffff;fill-opacity:0.99215686;stroke:none;stroke-width:0.01996264"
       id="path2360-2-7-7"
       d="m 3.4984766,311.34704 c 0,0.31293 -0.2727981,0.64794 -0.6265291,0.64794 l 0.01169,1.10418 c 0.0079,0.74971 -0.989666,0.53453 -0.989666,-0.21523 v -0.88895 c -0.344473,0 -0.644281,-0.27721 -0.644281,-0.69255 v -2.90678 c 0,-0.25301 0.349942,-0.2628 0.349942,0.01 v 2.14883 h 0.2929129 v -2.16838 c 0,-0.23255 0.336857,-0.24749 0.336857,0.01 v 2.15861 h 0.302678 v -2.16582 c 0,-0.24283 0.327092,-0.25261 0.327092,0.01 v 2.15607 h 0.2978062 l -1e-5,-2.16584 c 1e-5,-0.24028 0.34168,-0.25005 0.34168,0.01 z"
       sodipodi:nodetypes="ccsscsssccssccssccccc" />
    <path
       style="opacity:1;fill:#ffffff;fill-opacity:1;fill-rule:nonzero;stroke:none;stroke-width:0.34874803;stroke-linecap:round;stroke-linejoin:bevel;stroke-miterlimit:4;stroke-dasharray:none;stroke-dashoffset:0;stroke-opacity:1;paint-order:markers fill stroke"
       d="m 1.8450055,311.64282 h 1.058333 v 2.42246 l -1.058333,-0.366 z"
       id="rect829-8-9"
       inkscape:connector-curvature="0"
       sodipodi:nodetypes="ccccc" />
  </g>
</svg>
