<?xml version="1.0" encoding="UTF-8" standalone="no"?>
<!-- Created with Inkscape (http://www.inkscape.org/) -->

<svg
   xmlns:dc="http://purl.org/dc/elements/1.1/"
   xmlns:cc="http://creativecommons.org/ns#"
   xmlns:rdf="http://www.w3.org/1999/02/22-rdf-syntax-ns#"
   xmlns:svg="http://www.w3.org/2000/svg"
   xmlns="http://www.w3.org/2000/svg"
   xmlns:sodipodi="http://sodipodi.sourceforge.net/DTD/sodipodi-0.dtd"
   xmlns:inkscape="http://www.inkscape.org/namespaces/inkscape"
   width="32"
   height="32"
   viewBox="0 0 8.4666665 8.4666669"
   version="1.1"
   id="svg855"
   inkscape:version="0.92.3 (2405546, 2018-03-11)"
   sodipodi:docname="happy-logo.svg">
  <defs
     id="defs849" />
  <sodipodi:namedview
     id="base"
     pagecolor="#ffffff"
     bordercolor="#666666"
     borderopacity="1.0"
     inkscape:pageopacity="0.0"
     inkscape:pageshadow="2"
     inkscape:zoom="8.6092701"
     inkscape:cx="23.229993"
     inkscape:cy="16.082264"
     inkscape:document-units="mm"
     inkscape:current-layer="layer1"
     showgrid="false"
     units="px"
     inkscape:window-width="1360"
     inkscape:window-height="745"
     inkscape:window-x="-8"
     inkscape:window-y="-8"
     inkscape:window-maximized="1" />
  <metadata
     id="metadata852">
    <rdf:RDF>
      <cc:Work
         rdf:about="">
        <dc:format>image/svg+xml</dc:format>
        <dc:type
           rdf:resource="http://purl.org/dc/dcmitype/StillImage" />
        <dc:title></dc:title>
      </cc:Work>
    </rdf:RDF>
  </metadata>
  <g
     inkscape:label="Ebene 1"
     inkscape:groupmode="layer"
     id="layer1"
     transform="translate(0,-288.53332)">
    <g
       transform="translate(0,-1.9973377e-5)"
       id="g839">
      <rect
         transform="matrix(0.99600574,0.08928927,-0.08507243,0.99637477,0,0)"
         y="286.80795"
         x="30.968332"
         height="8.3155842"
         width="2.0295887"
         id="rect1942-9"
         style="opacity:1;fill:#ffc600;fill-opacity:1;fill-rule:nonzero;stroke:none;stroke-width:0.15343715;stroke-linecap:butt;stroke-linejoin:round;stroke-miterlimit:4;stroke-dasharray:none;stroke-dashoffset:0;stroke-opacity:1;paint-order:stroke fill markers" />
      <rect
         transform="matrix(0.99600574,0.08928927,-0.08507243,0.99637477,0,0)"
         y="286.98914"
         x="28.946466"
         height="8.3155842"
         width="2.0295887"
         id="rect1942-9-2"
         style="opacity:1;fill:#2ecb70;fill-opacity:1;fill-rule:nonzero;stroke:none;stroke-width:0.15343715;stroke-linecap:butt;stroke-linejoin:round;stroke-miterlimit:4;stroke-dasharray:none;stroke-dashoffset:0;stroke-opacity:1;paint-order:stroke fill markers" />
      <g
         transform="matrix(0.00833304,0,0,0.00934531,4.1130646,290.33658)"
         id="g10-0-7"
         style="fill:#115ea9;fill-opacity:1;stroke:#115ea9;stroke-width:20.57860565;stroke-miterlimit:4;stroke-dasharray:none;stroke-opacity:1">
        <path
           inkscape:connector-curvature="0"
           style="fill:#115ea9;fill-opacity:1;stroke:#115ea9;stroke-width:20.57860565;stroke-miterlimit:4;stroke-dasharray:none;stroke-opacity:1"
           d="m 383.164,237.123 c -1.332,80.699 -65.514,144.873 -146.213,146.206 -80.702,1.332 -144.907,-67.52 -146.206,-146.206 -0.198,-12.052 -18.907,-12.071 -18.709,0 1.5,90.921 73.993,163.414 164.914,164.914 90.929,1.5 163.455,-76.25 164.922,-164.914 0.199,-12.071 -18.51,-12.052 -18.708,0 z"
           id="path4-2-1" />
        <circle
           style="fill:#115ea9;fill-opacity:1;stroke:#115ea9;stroke-width:20.57860565;stroke-miterlimit:4;stroke-dasharray:none;stroke-opacity:1"
           cx="164.937"
           cy="155.22701"
           r="37.216"
           id="circle6-1-5" />
        <circle
           style="fill:#115ea9;fill-opacity:1;stroke:#115ea9;stroke-width:20.57860565;stroke-miterlimit:4;stroke-dasharray:none;stroke-opacity:1"
           cx="305.664"
           cy="155.22701"
           r="37.216"
           id="circle8-0-8" />
      </g>
      <rect
         y="288.60812"
         x="4.1854742e-009"
         height="8.3170881"
         width="4.0584078"
         id="rect1942"
         style="opacity:1;fill:#115ea9;fill-opacity:1;fill-rule:nonzero;stroke:none;stroke-width:0.21699195;stroke-linecap:butt;stroke-linejoin:round;stroke-miterlimit:4;stroke-dasharray:none;stroke-dashoffset:0;stroke-opacity:1;paint-order:stroke fill markers" />
      <path
         sodipodi:nodetypes="ccsscsssccssccssccccc"
         d="m 3.2266987,293.63311 c 0,0.32018 -0.2905568,0.66294 -0.6673155,0.66294 l -1.0245122,0.003 c -0.7985565,0.002 1.0362628,-0.0234 0.2378663,-0.009 l -0.2549918,0.005 c -0.3668977,0 -0.68622292,-0.28361 -0.68622292,-0.70859 v -2.97412 c 0,-0.25888 0.37272282,-0.26889 0.37272282,0.0102 v 2.19863 h 0.3119812 v -2.21863 c 0,-0.23794 0.358786,-0.25323 0.358786,0.0102 v 2.20861 h 0.322382 v -2.21599 c 0,-0.24845 0.3483854,-0.25846 0.3483854,0.0103 v 2.20603 h 0.3171929 l -1.07e-5,-2.21602 c 1.07e-5,-0.24585 0.3639228,-0.25584 0.3639228,0.0102 z"
         id="path2360-2"
         style="fill:#ffffff;fill-opacity:0.99215686;stroke:none;stroke-width:0.02083946"
         inkscape:connector-curvature="0" />
      <rect
         y="293.76935"
         x="1.5097275"
         height="3.1399586"
         width="1.0389524"
         id="rect1944"
         style="opacity:1;fill:#ffffff;fill-opacity:1;fill-rule:nonzero;stroke:none;stroke-width:0.23319675;stroke-linecap:butt;stroke-linejoin:round;stroke-miterlimit:4;stroke-dasharray:none;stroke-dashoffset:0;stroke-opacity:1;paint-order:stroke fill markers" />
    </g>
  </g>
</svg>
