<?xml version="1.0" encoding="UTF-8" standalone="no"?>
<!-- Created with Inkscape (http://www.inkscape.org/) -->

<svg
   xmlns:dc="http://purl.org/dc/elements/1.1/"
   xmlns:cc="http://creativecommons.org/ns#"
   xmlns:rdf="http://www.w3.org/1999/02/22-rdf-syntax-ns#"
   xmlns:svg="http://www.w3.org/2000/svg"
   xmlns="http://www.w3.org/2000/svg"
   xmlns:sodipodi="http://sodipodi.sourceforge.net/DTD/sodipodi-0.dtd"
   xmlns:inkscape="http://www.inkscape.org/namespaces/inkscape"
   width="88"
   height="12"
   viewBox="0 0 23.283333 3.175"
   version="1.1"
   id="svg2167"
   inkscape:version="0.92.3 (2405546, 2018-03-11)"
   sodipodi:docname="happy-logo-text.svg"
   inkscape:export-filename="C:\Users\dirkh\Pictures\Rastergrafik.png"
   inkscape:export-xdpi="899"
   inkscape:export-ydpi="899">
  <defs
     id="defs2161" />
  <sodipodi:namedview
     id="base"
     pagecolor="#ffffff"
     bordercolor="#666666"
     borderopacity="1.0"
     inkscape:pageopacity="0.0"
     inkscape:pageshadow="2"
     inkscape:zoom="5.6568542"
     inkscape:cx="39.347333"
     inkscape:cy="-9.3644343"
     inkscape:document-units="mm"
     inkscape:current-layer="layer1"
     showgrid="false"
     units="px"
     inkscape:window-width="1360"
     inkscape:window-height="745"
     inkscape:window-x="-8"
     inkscape:window-y="-8"
     inkscape:window-maximized="1"
     inkscape:lockguides="true"
     inkscape:pagecheckerboard="true">
    <inkscape:grid
       type="xygrid"
       id="grid827" />
  </sodipodi:namedview>
  <metadata
     id="metadata2164">
    <rdf:RDF>
      <cc:Work
         rdf:about="">
        <dc:format>image/svg+xml</dc:format>
        <dc:type
           rdf:resource="http://purl.org/dc/dcmitype/StillImage" />
        <dc:title />
      </cc:Work>
    </rdf:RDF>
  </metadata>
  <g
     inkscape:label="Ebene 1"
     inkscape:groupmode="layer"
     id="layer1"
     transform="translate(0,-293.825)">
    <g
       aria-label="Happy Gastronomy"
       transform="scale(0.96447167,1.0368371)"
       style="font-style:normal;font-variant:normal;font-weight:500;font-stretch:normal;font-size:3.88055563px;line-height:1.25;font-family:Roboto;-inkscape-font-specification:'Roboto Medium';font-variant-ligatures:normal;font-variant-caps:normal;font-variant-numeric:normal;font-feature-settings:normal;text-align:start;letter-spacing:0px;word-spacing:0px;writing-mode:lr-tb;text-anchor:start;opacity:0.98999999;fill:#ffffff;fill-opacity:1;stroke:none;stroke-width:0.11432997;stroke-linejoin:miter;stroke-miterlimit:4;stroke-dasharray:none;stroke-opacity:1"
       id="text831">
      <path
         d="M 1.6869942,285.63287 H 1.3397286 v -0.89159 H 0.44262569 v 0.89159 H 0.09398203 v -2.00642 h 0.34864366 v 0.83509 H 1.3397286 v -0.83509 h 0.3472656 z"
         style="font-style:normal;font-variant:normal;font-weight:500;font-stretch:normal;font-size:2.82222223px;font-family:Roboto;-inkscape-font-specification:'Roboto Medium';fill:#ffffff;fill-opacity:1;stroke:none;stroke-width:0.11432997;stroke-linejoin:miter;stroke-miterlimit:4;stroke-dasharray:none;stroke-opacity:1"
         id="path823" />
      <path
         d="m 2.9589235,285.63287 q -0.022049,-0.0427 -0.038585,-0.13918 -0.1598525,0.16674 -0.3913629,0.16674 -0.2246202,0 -0.3665581,-0.12815 -0.141938,-0.12816 -0.141938,-0.31695 0,-0.2384 0.1763889,-0.36518 0.1777669,-0.12816 0.5071181,-0.12816 h 0.2053277 v -0.0978 q 0,-0.11576 -0.064768,-0.18466 -0.064768,-0.0703 -0.1970595,-0.0703 -0.1143772,0 -0.1874132,0.0579 -0.073036,0.0565 -0.073036,0.14469 H 2.0521744 q 0,-0.12264 0.081304,-0.22875 0.081304,-0.10749 0.2204861,-0.16812 0.1405599,-0.0606 0.3128146,-0.0606 0.2618273,0 0.4175456,0.13229 0.1557183,0.13091 0.1598524,0.36931 v 0.67248 q 0,0.2012 0.0565,0.32109 v 0.0234 z m -0.3679362,-0.24115 q 0.099219,0 0.1860352,-0.0482 0.088194,-0.0482 0.1322917,-0.12954 v -0.28112 h -0.180523 q -0.1860352,0 -0.2797418,0.0648 -0.093707,0.0648 -0.093707,0.18328 0,0.0965 0.06339,0.15434 0.064768,0.0565 0.1722547,0.0565 z"
         style="font-style:normal;font-variant:normal;font-weight:500;font-stretch:normal;font-size:2.82222223px;font-family:Roboto;-inkscape-font-specification:'Roboto Medium';fill:#ffffff;fill-opacity:1;stroke:none;stroke-width:0.11432997;stroke-linejoin:miter;stroke-miterlimit:4;stroke-dasharray:none;stroke-opacity:1"
         id="path825" />
      <path
         d="m 4.9005792,284.90251 q 0,0.34589 -0.1570963,0.5526 -0.1570964,0.20532 -0.4216797,0.20532 -0.2452908,0 -0.3927409,-0.16123 v 0.70694 H 3.594199 v -2.0643 h 0.3086806 l 0.01378,0.15158 q 0.14745,-0.17914 0.4010091,-0.17914 0.2728515,0 0.4271918,0.20395 0.1557183,0.20257 0.1557183,0.56361 z m -0.3334852,-0.0289 q 0,-0.22324 -0.089573,-0.35415 -0.088194,-0.13091 -0.253559,-0.13091 -0.2053277,0 -0.2949002,0.16949 v 0.66146 q 0.09095,0.17363 0.2976563,0.17363 0.1598524,0 0.2494249,-0.12815 0.09095,-0.12954 0.09095,-0.39137 z"
         style="font-style:normal;font-variant:normal;font-weight:500;font-stretch:normal;font-size:2.82222223px;font-family:Roboto;-inkscape-font-specification:'Roboto Medium';fill:#ffffff;fill-opacity:1;stroke:none;stroke-width:0.11432997;stroke-linejoin:miter;stroke-miterlimit:4;stroke-dasharray:none;stroke-opacity:1"
         id="path827" />
      <path
         d="m 6.4880793,284.90251 q 0,0.34589 -0.1570963,0.5526 -0.1570964,0.20532 -0.4216797,0.20532 -0.2452908,0 -0.3927409,-0.16123 v 0.70694 H 5.1816991 v -2.0643 h 0.3086806 l 0.01378,0.15158 q 0.14745,-0.17914 0.4010091,-0.17914 0.2728515,0 0.4271918,0.20395 0.1557183,0.20257 0.1557183,0.56361 z m -0.3334852,-0.0289 q 0,-0.22324 -0.089573,-0.35415 -0.088194,-0.13091 -0.253559,-0.13091 -0.2053277,0 -0.2949002,0.16949 v 0.66146 q 0.09095,0.17363 0.2976562,0.17363 0.1598525,0 0.249425,-0.12815 0.09095,-0.12954 0.09095,-0.39137 z"
         style="font-style:normal;font-variant:normal;font-weight:500;font-stretch:normal;font-size:2.82222223px;font-family:Roboto;-inkscape-font-specification:'Roboto Medium';fill:#ffffff;fill-opacity:1;stroke:none;stroke-width:0.11432997;stroke-linejoin:miter;stroke-miterlimit:4;stroke-dasharray:none;stroke-opacity:1"
         id="path829" />
      <path
         d="m 7.274939,285.15332 0.3031684,-1.01148 h 0.3569119 l -0.5925565,1.71703 q -0.1364257,0.37621 -0.4630208,0.37621 -0.073036,0 -0.1612305,-0.0248 v -0.25907 l 0.06339,0.004 q 0.1267795,0 0.1901693,-0.0469 0.064768,-0.0455 0.1019748,-0.15434 l 0.048231,-0.12816 -0.5236545,-1.48414 h 0.361046 z"
         style="font-style:normal;font-variant:normal;font-weight:500;font-stretch:normal;font-size:2.82222223px;font-family:Roboto;-inkscape-font-specification:'Roboto Medium';fill:#ffffff;fill-opacity:1;stroke:none;stroke-width:0.11432997;stroke-linejoin:miter;stroke-miterlimit:4;stroke-dasharray:none;stroke-opacity:1"
         id="path831" />
      <path
         d="m 10.401708,285.37242 q -0.108865,0.14194 -0.30179,0.21498 -0.1929256,0.073 -0.4382164,0.073 -0.252181,0 -0.4464844,-0.11437 -0.1943033,-0.11438 -0.3004123,-0.3266 -0.1047309,-0.21359 -0.108865,-0.49747 v -0.1571 q 0,-0.45475 0.21773,-0.70969 0.2177301,-0.25631 0.6077149,-0.25631 0.3348633,0 0.5319232,0.16536 0.197059,0.16537 0.237022,0.4768 h -0.341753 q -0.05788,-0.36242 -0.420302,-0.36242 -0.2342665,0 -0.3569119,0.1695 -0.1212674,0.16812 -0.1254015,0.49472 v 0.15434 q 0,0.32521 0.1364258,0.50574 0.1378038,0.17914 0.3817166,0.17914 0.2673394,0 0.380339,-0.12127 v -0.39274 H 9.641031 v -0.26458 h 0.760677 z"
         style="font-style:normal;font-variant:normal;font-weight:500;font-stretch:normal;font-size:2.82222223px;font-family:Roboto;-inkscape-font-specification:'Roboto Medium';fill:#ffffff;fill-opacity:1;stroke:none;stroke-width:0.11432997;stroke-linejoin:miter;stroke-miterlimit:4;stroke-dasharray:none;stroke-opacity:1"
         id="path833" />
      <path
         d="m 11.646077,285.63287 q -0.02205,-0.0427 -0.03858,-0.13918 -0.159853,0.16674 -0.391363,0.16674 -0.224621,0 -0.366558,-0.12815 -0.141938,-0.12816 -0.141938,-0.31695 0,-0.2384 0.176389,-0.36518 0.177766,-0.12816 0.507118,-0.12816 h 0.205327 v -0.0978 q 0,-0.11576 -0.06477,-0.18466 -0.06477,-0.0703 -0.197059,-0.0703 -0.114377,0 -0.187413,0.0579 -0.07304,0.0565 -0.07304,0.14469 h -0.334863 q 0,-0.12264 0.0813,-0.22875 0.0813,-0.10749 0.220486,-0.16812 0.14056,-0.0606 0.312815,-0.0606 0.261827,0 0.417545,0.13229 0.155718,0.13091 0.159853,0.36931 v 0.67248 q 0,0.2012 0.0565,0.32109 v 0.0234 z m -0.367937,-0.24115 q 0.09922,0 0.186036,-0.0482 0.08819,-0.0482 0.132291,-0.12954 v -0.28112 h -0.180523 q -0.186035,0 -0.279741,0.0648 -0.09371,0.0648 -0.09371,0.18328 0,0.0965 0.06339,0.15434 0.06477,0.0565 0.172254,0.0565 z"
         style="font-style:normal;font-variant:normal;font-weight:500;font-stretch:normal;font-size:2.82222223px;font-family:Roboto;-inkscape-font-specification:'Roboto Medium';fill:#ffffff;fill-opacity:1;stroke:none;stroke-width:0.11432997;stroke-linejoin:miter;stroke-miterlimit:4;stroke-dasharray:none;stroke-opacity:1"
         id="path835" />
      <path
         d="m 13.117821,285.22773 q 0,-0.0896 -0.07441,-0.13643 -0.07304,-0.0469 -0.243913,-0.0827 -0.170876,-0.0358 -0.285254,-0.091 -0.250803,-0.12127 -0.250803,-0.3514 0,-0.19292 0.162609,-0.32246 0.162608,-0.12953 0.413411,-0.12953 0.26734,0 0.431326,0.13229 0.165365,0.13229 0.165365,0.34313 h -0.334863 q 0,-0.0965 -0.07166,-0.15985 -0.07166,-0.0648 -0.19017,-0.0648 -0.110243,0 -0.180523,0.051 -0.0689,0.051 -0.0689,0.13642 0,0.0772 0.06477,0.11989 0.06477,0.0427 0.261827,0.0868 0.19706,0.0427 0.308681,0.10335 0.112999,0.0593 0.166743,0.14332 0.05512,0.0841 0.05512,0.20395 0,0.20119 -0.166742,0.32659 -0.166743,0.12402 -0.436839,0.12402 -0.183279,0 -0.326595,-0.0661 -0.143316,-0.0661 -0.223242,-0.1819 -0.07993,-0.11576 -0.07993,-0.24943 h 0.325217 q 0.0069,0.11851 0.08957,0.18328 0.08268,0.0634 0.219108,0.0634 0.132291,0 0.201193,-0.0496 0.0689,-0.051 0.0689,-0.13229 z"
         style="font-style:normal;font-variant:normal;font-weight:500;font-stretch:normal;font-size:2.82222223px;font-family:Roboto;-inkscape-font-specification:'Roboto Medium';fill:#ffffff;fill-opacity:1;stroke:none;stroke-width:0.11432997;stroke-linejoin:miter;stroke-miterlimit:4;stroke-dasharray:none;stroke-opacity:1"
         id="path837" />
      <path
         d="m 14.156862,283.77941 v 0.36243 h 0.263206 v 0.24804 h -0.263206 v 0.83234 q 0,0.0854 0.03307,0.12402 0.03445,0.0372 0.121268,0.0372 0.05788,0 0.117133,-0.0138 v 0.25907 q -0.114377,0.0317 -0.220486,0.0317 -0.385851,0 -0.385851,-0.42581 v -0.84474 h -0.245291 v -0.24804 h 0.245291 v -0.36243 z"
         style="font-style:normal;font-variant:normal;font-weight:500;font-stretch:normal;font-size:2.82222223px;font-family:Roboto;-inkscape-font-specification:'Roboto Medium';fill:#ffffff;fill-opacity:1;stroke:none;stroke-width:0.11432997;stroke-linejoin:miter;stroke-miterlimit:4;stroke-dasharray:none;stroke-opacity:1"
         id="path839" />
      <path
         d="m 15.454973,284.44776 q -0.06615,-0.011 -0.136425,-0.011 -0.230133,0 -0.310059,0.17639 v 1.01974 h -0.334863 v -1.49103 h 0.319705 l 0.0083,0.16674 q 0.121267,-0.1943 0.336241,-0.1943 0.07166,0 0.118511,0.0193 z"
         style="font-style:normal;font-variant:normal;font-weight:500;font-stretch:normal;font-size:2.82222223px;font-family:Roboto;-inkscape-font-specification:'Roboto Medium';fill:#ffffff;fill-opacity:1;stroke:none;stroke-width:0.11432997;stroke-linejoin:miter;stroke-miterlimit:4;stroke-dasharray:none;stroke-opacity:1"
         id="path841" />
      <path
         d="m 15.554192,284.87357 q 0,-0.2191 0.08682,-0.39411 0.08682,-0.17639 0.243913,-0.2701 0.157096,-0.0951 0.361046,-0.0951 0.30179,0 0.489203,0.1943 0.188791,0.1943 0.20395,0.51539 l 0.0014,0.0785 q 0,0.22049 -0.08544,0.39412 -0.08406,0.17364 -0.242534,0.26872 -0.157097,0.0951 -0.363802,0.0951 -0.315571,0 -0.50574,-0.20946 -0.188792,-0.21084 -0.188792,-0.56086 z m 0.334864,0.0289 q 0,0.23014 0.09508,0.36105 0.09509,0.12953 0.264584,0.12953 0.169498,0 0.263205,-0.13229 0.09509,-0.13229 0.09509,-0.38723 0,-0.22599 -0.09784,-0.35829 -0.09646,-0.13229 -0.263205,-0.13229 -0.163987,0 -0.26045,0.13092 -0.09646,0.12953 -0.09646,0.3886 z"
         style="font-style:normal;font-variant:normal;font-weight:500;font-stretch:normal;font-size:2.82222223px;font-family:Roboto;-inkscape-font-specification:'Roboto Medium';fill:#ffffff;fill-opacity:1;stroke:none;stroke-width:0.11432997;stroke-linejoin:miter;stroke-miterlimit:4;stroke-dasharray:none;stroke-opacity:1"
         id="path843" />
      <path
         d="m 17.53719,284.14184 0.0096,0.17225 q 0.165364,-0.19981 0.434082,-0.19981 0.465776,0 0.474045,0.5333 v 0.98529 H 18.1201 v -0.966 q 0,-0.14194 -0.06201,-0.20946 -0.06063,-0.0689 -0.199816,-0.0689 -0.202571,0 -0.30179,0.18327 v 1.06109 H 17.22162 v -1.49103 z"
         style="font-style:normal;font-variant:normal;font-weight:500;font-stretch:normal;font-size:2.82222223px;font-family:Roboto;-inkscape-font-specification:'Roboto Medium';fill:#ffffff;fill-opacity:1;stroke:none;stroke-width:0.11432997;stroke-linejoin:miter;stroke-miterlimit:4;stroke-dasharray:none;stroke-opacity:1"
         id="path845" />
      <path
         d="m 18.734705,284.87357 q 0,-0.2191 0.08682,-0.39411 0.08682,-0.17639 0.243913,-0.2701 0.157096,-0.0951 0.361046,-0.0951 0.30179,0 0.489204,0.1943 0.188791,0.1943 0.203949,0.51539 l 0.0014,0.0785 q 0,0.22049 -0.08544,0.39412 -0.08406,0.17364 -0.242535,0.26872 -0.157096,0.0951 -0.363802,0.0951 -0.315571,0 -0.50574,-0.20946 -0.188791,-0.21084 -0.188791,-0.56086 z m 0.334863,0.0289 q 0,0.23014 0.09509,0.36105 0.09508,0.12953 0.264583,0.12953 0.169499,0 0.263205,-0.13229 0.09509,-0.13229 0.09509,-0.38723 0,-0.22599 -0.09784,-0.35829 -0.09646,-0.13229 -0.263205,-0.13229 -0.163987,0 -0.260449,0.13092 -0.09646,0.12953 -0.09646,0.3886 z"
         style="font-style:normal;font-variant:normal;font-weight:500;font-stretch:normal;font-size:2.82222223px;font-family:Roboto;-inkscape-font-specification:'Roboto Medium';fill:#ffffff;fill-opacity:1;stroke:none;stroke-width:0.11432997;stroke-linejoin:miter;stroke-miterlimit:4;stroke-dasharray:none;stroke-opacity:1"
         id="path847" />
      <path
         d="m 20.721836,284.14184 0.0096,0.15571 q 0.157096,-0.18327 0.429948,-0.18327 0.299034,0 0.409277,0.22875 0.162609,-0.22875 0.457509,-0.22875 0.246669,0 0.366558,0.13642 0.121268,0.13643 0.124024,0.40239 v 0.97978 h -0.334864 v -0.97014 q 0,-0.14193 -0.06201,-0.20808 -0.06201,-0.0661 -0.205328,-0.0661 -0.114377,0 -0.187413,0.062 -0.07166,0.0606 -0.100597,0.15985 l 0.0014,1.0225 H 21.2951 v -0.98116 q -0.0069,-0.2632 -0.268718,-0.2632 -0.201193,0 -0.285254,0.16398 v 1.08038 h -0.334863 v -1.49103 z"
         style="font-style:normal;font-variant:normal;font-weight:500;font-stretch:normal;font-size:2.82222223px;font-family:Roboto;-inkscape-font-specification:'Roboto Medium';fill:#ffffff;fill-opacity:1;stroke:none;stroke-width:0.11432997;stroke-linejoin:miter;stroke-miterlimit:4;stroke-dasharray:none;stroke-opacity:1"
         id="path849" />
      <path
         d="m 23.386961,285.15332 0.303169,-1.01148 h 0.356912 l -0.592557,1.71703 q -0.136426,0.37621 -0.463021,0.37621 -0.07304,0 -0.16123,-0.0248 v -0.25907 l 0.06339,0.004 q 0.126779,0 0.190169,-0.0469 0.06477,-0.0455 0.101975,-0.15434 l 0.04823,-0.12816 -0.523654,-1.48414 h 0.361046 z"
         style="font-style:normal;font-variant:normal;font-weight:500;font-stretch:normal;font-size:2.82222223px;font-family:Roboto;-inkscape-font-specification:'Roboto Medium';fill:#ffffff;fill-opacity:1;stroke:none;stroke-width:0.11432997;stroke-linejoin:miter;stroke-miterlimit:4;stroke-dasharray:none;stroke-opacity:1"
         id="path851" />
    </g>
  </g>
</svg>
