<?xml version="1.0" encoding="UTF-8" standalone="no"?>
<!-- Created with Inkscape (http://www.inkscape.org/) -->

<svg
   xmlns:dc="http://purl.org/dc/elements/1.1/"
   xmlns:cc="http://creativecommons.org/ns#"
   xmlns:rdf="http://www.w3.org/1999/02/22-rdf-syntax-ns#"
   xmlns:svg="http://www.w3.org/2000/svg"
   xmlns="http://www.w3.org/2000/svg"
   xmlns:sodipodi="http://sodipodi.sourceforge.net/DTD/sodipodi-0.dtd"
   xmlns:inkscape="http://www.inkscape.org/namespaces/inkscape"
   width="32"
   height="32"
   viewBox="0 0 8.4666665 8.4666665"
   version="1.1"
   id="svg2167"
   inkscape:version="0.92.3 (2405546, 2018-03-11)"
   sodipodi:docname="hg-logo-colors.svg"
   inkscape:export-filename="C:\Users\dirkh\Desktop\HG.png"
   inkscape:export-xdpi="899"
   inkscape:export-ydpi="899">
  <defs
     id="defs2161" />
  <sodipodi:namedview
     id="base"
     pagecolor="#ffffff"
     bordercolor="#666666"
     borderopacity="1.0"
     inkscape:pageopacity="0.0"
     inkscape:pageshadow="2"
     inkscape:zoom="6.1843505"
     inkscape:cx="24.975348"
     inkscape:cy="13.195435"
     inkscape:document-units="mm"
     inkscape:current-layer="layer1"
     showgrid="false"
     units="px"
     inkscape:window-width="1360"
     inkscape:window-height="745"
     inkscape:window-x="-8"
     inkscape:window-y="-8"
     inkscape:window-maximized="1"
     inkscape:pagecheckerboard="true">
    <inkscape:grid
       type="xygrid"
       id="grid827" />
  </sodipodi:namedview>
  <metadata
     id="metadata2164">
    <rdf:RDF>
      <cc:Work
         rdf:about="">
        <dc:format>image/svg+xml</dc:format>
        <dc:type
           rdf:resource="http://purl.org/dc/dcmitype/StillImage" />
        <dc:title></dc:title>
      </cc:Work>
    </rdf:RDF>
  </metadata>
  <g
     inkscape:label="Ebene 1"
     inkscape:groupmode="layer"
     id="layer1"
     transform="translate(0,-288.53334)">
    <path
       style="opacity:1;fill:#3366cc;fill-opacity:1;fill-rule:nonzero;stroke:none;stroke-width:0.15811114;stroke-linecap:butt;stroke-linejoin:round;stroke-miterlimit:4;stroke-dasharray:none;stroke-dashoffset:0;stroke-opacity:1;paint-order:stroke fill markers"
       d="m 4.2333333,288.53334 v 0.22014 0.83819 2.11667 0.83768 0.22065 h 0.2206583 0.837675 2.1166662 0.837675 0.220659 v -0.22065 -0.83768 -2.95486 c 0,-0.1221 -0.09855,-0.22014 -0.220659,-0.22014 H 5.2916666 4.4539916 Z"
       id="rect1942"
       inkscape:connector-curvature="0" />
    <g
       id="g832"
       transform="matrix(0.54435269,0,0,0.54435269,4.9118294,131.09007)"
       style="fill:#ffffff">
      <path
         sodipodi:nodetypes="ccsscsssccssccssccccc"
         d="m 3.4873681,293.32895 c 0,0.30557 -0.2663792,0.63269 -0.6117873,0.63269 l -0.9392615,0.003 c -0.7321077,0.002 0.9500343,-0.0223 0.2180732,-0.008 l -0.2337737,0.005 c -0.3363677,0 -0.6291215,-0.27068 -0.6291215,-0.67626 V 290.447 c 0,-0.24706 0.3417081,-0.25662 0.3417081,0.009 v 2.09827 h 0.286021 v -2.11736 c 0,-0.22708 0.328931,-0.24167 0.328931,0.009 v 2.10782 h 0.2955562 v -2.11486 c 0,-0.23711 0.3193958,-0.24667 0.3193958,0.009 v 2.10534 h 0.290799 l -9.8e-6,-2.11488 c 9.8e-6,-0.23463 0.3336404,-0.24417 0.3336404,0.009 z"
         id="path2360-2"
         style="fill:#ffffff;fill-opacity:0.99215686;stroke:none;stroke-width:0.01949294"
         inkscape:connector-curvature="0" />
      <rect
         y="293.45895"
         x="1.9132681"
         height="2.9966524"
         width="0.95249999"
         id="rect1944"
         style="opacity:1;fill:#ffffff;fill-opacity:1;fill-rule:nonzero;stroke:none;stroke-width:0.21812898;stroke-linecap:butt;stroke-linejoin:round;stroke-miterlimit:4;stroke-dasharray:none;stroke-dashoffset:0;stroke-opacity:1;paint-order:stroke fill markers" />
    </g>
    <path
       style="opacity:1;fill:#ffffff;fill-opacity:1;fill-rule:nonzero;stroke:none;stroke-width:0.15811114;stroke-linecap:butt;stroke-linejoin:round;stroke-miterlimit:4;stroke-dasharray:none;stroke-dashoffset:0;stroke-opacity:1;paint-order:stroke fill markers"
       d="m 4.2333333,288.53334 v 0.22014 0.83819 2.11667 0.83768 0.22065 H 4.012675 3.175 1.0583338 0.22065881 -2.9e-7 v -0.22065 -0.83768 -2.95486 c 0,-0.1221 0.09855,-0.22014 0.2206591,-0.22014 H 3.175 4.012675 Z"
       id="rect1942-7"
       inkscape:connector-curvature="0" />
    <path
       style="opacity:1;fill:#00cc00;fill-opacity:1;fill-rule:nonzero;stroke:none;stroke-width:0.15811114;stroke-linecap:butt;stroke-linejoin:round;stroke-miterlimit:4;stroke-dasharray:none;stroke-dashoffset:0;stroke-opacity:1;paint-order:stroke fill markers"
       d="m 4.2333333,297 v -0.22014 -0.83819 -2.11667 -0.83768 -0.22065 H 4.012675 3.175 1.0583338 0.2206588 -3.2e-7 v 0.22065 0.83768 2.95486 c 0,0.1221 0.09855,0.22014 0.22065912,0.22014 H 3.175 4.012675 Z"
       id="rect1942-7-0"
       inkscape:connector-curvature="0" />
    <path
       style="opacity:1;fill:#ffcc00;fill-opacity:1;fill-rule:nonzero;stroke:none;stroke-width:0.15811114;stroke-linecap:butt;stroke-linejoin:round;stroke-miterlimit:4;stroke-dasharray:none;stroke-dashoffset:0;stroke-opacity:1;paint-order:stroke fill markers"
       d="m 4.2333333,297.00001 v -0.22014 -0.83819 -2.11667 -0.83768 -0.22065 h 0.2206583 0.837675 2.1166662 0.837675 0.2206591 v 0.22065 0.83768 2.95486 c 0,0.1221 -0.09855,0.22014 -0.2206591,0.22014 H 5.2916666 4.4539916 Z"
       id="rect1942-4"
       inkscape:connector-curvature="0" />
    <g
       style="fill:#146dc5;fill-opacity:1;stroke:#146dc5;stroke-width:20.57860565;stroke-miterlimit:4;stroke-dasharray:none;stroke-opacity:1"
       id="g10-0-7"
       transform="matrix(0.00688243,0,0,0.0076442,0.48113948,288.72519)">
      <path
         id="path4-2-1"
         d="m 383.164,237.123 c -1.332,80.699 -65.514,144.873 -146.213,146.206 -80.702,1.332 -144.907,-67.52 -146.206,-146.206 -0.198,-12.052 -18.907,-12.071 -18.709,0 1.5,90.921 73.993,163.414 164.914,164.914 90.929,1.5 163.455,-76.25 164.922,-164.914 0.199,-12.071 -18.51,-12.052 -18.708,0 z"
         style="fill:#146dc5;fill-opacity:1;stroke:#146dc5;stroke-width:20.57860565;stroke-miterlimit:4;stroke-dasharray:none;stroke-opacity:1"
         inkscape:connector-curvature="0" />
      <circle
         id="circle6-1-5"
         r="37.216"
         cy="155.22701"
         cx="164.937"
         style="fill:#146dc5;fill-opacity:1;stroke:#146dc5;stroke-width:20.57860565;stroke-miterlimit:4;stroke-dasharray:none;stroke-opacity:1" />
      <circle
         id="circle8-0-8"
         r="37.216"
         cy="155.22701"
         cx="305.664"
         style="fill:#146dc5;fill-opacity:1;stroke:#146dc5;stroke-width:20.57860565;stroke-miterlimit:4;stroke-dasharray:none;stroke-opacity:1" />
    </g>
    <path
       sodipodi:type="star"
       style="opacity:1;fill:#3366cc;fill-opacity:1;fill-rule:nonzero;stroke:#fdfeff;stroke-width:0.12154046;stroke-linecap:round;stroke-linejoin:round;stroke-miterlimit:4;stroke-dasharray:none;stroke-dashoffset:0;stroke-opacity:1;paint-order:fill markers stroke"
       id="path997"
       sodipodi:sides="5"
       sodipodi:cx="2.1391359"
       sodipodi:cy="294.90364"
       sodipodi:r1="1.1803886"
       sodipodi:r2="0.59019434"
       sodipodi:arg1="1.3086765"
       sodipodi:arg2="1.936995"
       inkscape:flatsided="false"
       inkscape:rounded="2.5"
       inkscape:randomized="0"
       d="m 2.4450082,296.0437 c -1.89270253,0.50779 1.3125023,0.11267 -0.5172025,-0.58901 -1.82970494,-0.70169 0.2894012,1.73529 -0.778421,0.0921 -1.06782207,-1.64315 0.2984233,1.28308 0.4003558,-0.6739 0.1019324,-1.95699 -1.5609291,0.81147 -0.3281769,-0.71185 1.2327522,-1.52332 -1.12806655,0.68031 0.764636,0.17251 1.8927027,-0.5078 -1.25410842,-1.23377 0.5755965,-0.53209 1.8297049,0.70169 -0.9956067,-0.86262 0.072215,0.78052 1.0678221,1.64315 0.7858475,-1.57398 0.6839151,0.383 -0.1019324,1.95699 0.5127477,-1.21344 -0.7200045,0.30988 -1.2327523,1.52332 1.7397888,0.261 -0.1529138,0.7688 z"
       inkscape:transform-center-x="0.052904155"
       inkscape:transform-center-y="-0.011420125" />
    <path
       sodipodi:type="star"
       style="opacity:1;fill:#3366cc;fill-opacity:1;fill-rule:nonzero;stroke:#fdfeff;stroke-width:0.12154046;stroke-linecap:round;stroke-linejoin:round;stroke-miterlimit:4;stroke-dasharray:none;stroke-dashoffset:0;stroke-opacity:1;paint-order:fill markers stroke"
       id="path997-3"
       sodipodi:sides="5"
       sodipodi:cx="6.3419763"
       sodipodi:cy="294.78678"
       sodipodi:r1="1.1803886"
       sodipodi:r2="0.5901944"
       sodipodi:arg1="1.3086765"
       sodipodi:arg2="1.936995"
       inkscape:flatsided="false"
       inkscape:rounded="2.5"
       inkscape:randomized="0"
       d="m 6.6478485,295.92684 c -1.8927024,0.5078 1.3125023,0.11268 -0.5172025,-0.589 -1.8297049,-0.70169 0.2894012,1.73529 -0.7784209,0.0921 -1.0678221,-1.64315 0.2984232,1.28308 0.4003556,-0.67391 0.1019325,-1.95698 -1.5609289,0.81148 -0.3281767,-0.71184 1.2327521,-1.52332 -1.1280666,0.68031 0.7646359,0.17251 1.8927026,-0.5078 -1.2541083,-1.23377 0.5755966,-0.53209 1.8297048,0.70169 -0.9956067,-0.86263 0.072215,0.78052 1.0678221,1.64315 0.7858474,-1.57398 0.683915,0.383 -0.1019324,1.95699 0.5127478,-1.21344 -0.7200044,0.30988 -1.2327523,1.52332 1.7397887,0.261 -0.1529139,0.76879 z"
       inkscape:transform-center-x="0.052904155"
       inkscape:transform-center-y="-0.011420125" />
  </g>
</svg>
