<?xml version="1.0" encoding="UTF-8" standalone="no"?>
<!-- Created with Inkscape (http://www.inkscape.org/) -->

<svg
   xmlns:dc="http://purl.org/dc/elements/1.1/"
   xmlns:cc="http://creativecommons.org/ns#"
   xmlns:rdf="http://www.w3.org/1999/02/22-rdf-syntax-ns#"
   xmlns:svg="http://www.w3.org/2000/svg"
   xmlns="http://www.w3.org/2000/svg"
   xmlns:sodipodi="http://sodipodi.sourceforge.net/DTD/sodipodi-0.dtd"
   xmlns:inkscape="http://www.inkscape.org/namespaces/inkscape"
   width="34"
   height="32"
   viewBox="0 0 8.9958332 8.4666665"
   version="1.1"
   id="svg2167"
   inkscape:version="0.92.3 (2405546, 2018-03-11)"
   sodipodi:docname="hg-logo-green.svg"
   inkscape:export-filename="C:\Users\dirkh\Pictures\Rastergrafik.png"
   inkscape:export-xdpi="899"
   inkscape:export-ydpi="899">
  <defs
     id="defs2161" />
  <sodipodi:namedview
     id="base"
     pagecolor="#ffffff"
     bordercolor="#666666"
     borderopacity="1.0"
     inkscape:pageopacity="0.0"
     inkscape:pageshadow="2"
     inkscape:zoom="10.59"
     inkscape:cx="11.163097"
     inkscape:cy="12.380168"
     inkscape:document-units="mm"
     inkscape:current-layer="layer1"
     showgrid="false"
     units="px"
     inkscape:window-width="1360"
     inkscape:window-height="745"
     inkscape:window-x="-8"
     inkscape:window-y="-8"
     inkscape:window-maximized="1"
     inkscape:showpageshadow="false"
     borderlayer="true"
     inkscape:snap-nodes="false"
     inkscape:snap-others="true"
     inkscape:pagecheckerboard="true">
    <inkscape:grid
       type="xygrid"
       id="grid827" />
  </sodipodi:namedview>
  <metadata
     id="metadata2164">
    <rdf:RDF>
      <cc:Work
         rdf:about="">
        <dc:format>image/svg+xml</dc:format>
        <dc:type
           rdf:resource="http://purl.org/dc/dcmitype/StillImage" />
        <dc:title></dc:title>
      </cc:Work>
    </rdf:RDF>
  </metadata>
  <g
     inkscape:label="Ebene 1"
     inkscape:groupmode="layer"
     id="layer1"
     transform="translate(0,-288.53334)">
    <g
       id="g834"
       transform="matrix(0.99473629,0,0,1.0001993,0.02000962,-0.03834376)"
       style="fill:#50b464;stroke:#50b464;stroke-opacity:1;fill-opacity:1">
      <path
         id="path4-2-1"
         d="m 6.9027945,293.24424 c -0.370286,1.93973 -1.984665,3.18996 -3.6782364,2.84846 -1.693572,-0.34173 -2.74449289,-2.29916 -2.43796436,-4.20253 0.0470438,-0.29153 -0.34425203,-0.37864 -0.3913314,-0.0866 -0.35411962,2.19937 0.85459626,4.28309 2.74993346,4.74028 1.8955369,0.45715 3.7422071,-1.08176 4.1489087,-3.21293 0.055226,-0.2902 -0.3360394,-0.37635 -0.39131,-0.0866 z"
         style="fill:#50b464;fill-opacity:1;stroke:#50b464;stroke-width:0.70798182;stroke-miterlimit:4;stroke-dasharray:none;stroke-opacity:1"
         inkscape:connector-curvature="0" />
      <path
         sodipodi:nodetypes="ccsscsssccssccssccccc"
         d="m 8.1435358,293.33005 c -0.08923,0.29577 -0.4066509,0.52801 -0.6947324,0.41872 l -0.3810079,0.81893 c -0.3123326,0.67132 -0.8820275,0.42839 -0.6687168,-0.28098 l 0.2531382,-0.84004 c -0.2805307,-0.10648 -0.4457907,-0.46099 -0.3276165,-0.8534 l 0.8276706,-2.74675 c 0.072074,-0.23913 0.3598412,-0.14054 0.2822922,0.11707 l -0.6118615,2.03054 0.2384722,0.0905 0.6174239,-2.049 c 0.06622,-0.21978 0.3448412,-0.12986 0.2716881,0.11307 l -0.6146362,2.03977 0.2465621,0.0935 0.6166962,-2.04662 c 0.069248,-0.22944 0.3383363,-0.13747 0.2636946,0.10987 l -0.6139094,2.03739 0.2425939,0.0922 0.6166745,-2.04661 c 0.068321,-0.22709 0.349482,-0.13049 0.2755989,0.11441 z"
         id="path2360-2"
         style="fill:#50b464;fill-opacity:1;stroke:#50b464;stroke-width:0.01848615;stroke-opacity:1"
         inkscape:connector-curvature="0" />
      <ellipse
         transform="matrix(0.97635856,0.21615724,-0.17321795,0.98488352,0,0)"
         ry="0.95830166"
         rx="0.76251733"
         id="circle6-1-5-0"
         cy="282.87921"
         cx="52.844116"
         style="fill:#50b464;fill-opacity:1;stroke:#50b464;stroke-width:0.47267455;stroke-miterlimit:4;stroke-dasharray:none;stroke-opacity:1" />
      <ellipse
         transform="matrix(0.97635856,0.21615724,-0.17321795,0.98488352,0,0)"
         ry="0.95830166"
         rx="0.76251733"
         id="circle6-1-5-0-0"
         cy="282.81766"
         cx="55.40073"
         style="fill:#50b464;fill-opacity:1;stroke:#50b464;stroke-width:0.47267455;stroke-miterlimit:4;stroke-dasharray:none;stroke-opacity:1" />
    </g>
  </g>
</svg>
