<?xml version="1.0" encoding="UTF-8" standalone="no"?>
<!-- Created with Inkscape (http://www.inkscape.org/) -->

<svg
   xmlns:dc="http://purl.org/dc/elements/1.1/"
   xmlns:cc="http://creativecommons.org/ns#"
   xmlns:rdf="http://www.w3.org/1999/02/22-rdf-syntax-ns#"
   xmlns:svg="http://www.w3.org/2000/svg"
   xmlns="http://www.w3.org/2000/svg"
   xmlns:sodipodi="http://sodipodi.sourceforge.net/DTD/sodipodi-0.dtd"
   xmlns:inkscape="http://www.inkscape.org/namespaces/inkscape"
   width="34"
   height="32"
   viewBox="0 0 8.9958332 8.4666665"
   version="1.1"
   id="svg2167"
   inkscape:version="0.92.3 (2405546, 2018-03-11)"
   sodipodi:docname="hg-logo-blue-yellow.svg"
   inkscape:export-filename="C:\Users\dirkh\Pictures\Rastergrafik.png"
   inkscape:export-xdpi="899"
   inkscape:export-ydpi="899">
  <defs
     id="defs2161" />
  <sodipodi:namedview
     id="base"
     pagecolor="#ffffff"
     bordercolor="#666666"
     borderopacity="1.0"
     inkscape:pageopacity="0.0"
     inkscape:pageshadow="2"
     inkscape:zoom="3.48"
     inkscape:cx="-19.612707"
     inkscape:cy="23.874421"
     inkscape:document-units="mm"
     inkscape:current-layer="layer1"
     showgrid="false"
     units="px"
     inkscape:window-width="1360"
     inkscape:window-height="745"
     inkscape:window-x="-8"
     inkscape:window-y="-8"
     inkscape:window-maximized="1"
     inkscape:showpageshadow="false"
     borderlayer="true"
     inkscape:snap-nodes="false"
     inkscape:snap-others="true"
     inkscape:pagecheckerboard="true">
    <inkscape:grid
       type="xygrid"
       id="grid827" />
  </sodipodi:namedview>
  <metadata
     id="metadata2164">
    <rdf:RDF>
      <cc:Work
         rdf:about="">
        <dc:format>image/svg+xml</dc:format>
        <dc:type
           rdf:resource="http://purl.org/dc/dcmitype/StillImage" />
        <dc:title></dc:title>
      </cc:Work>
    </rdf:RDF>
  </metadata>
  <g
     inkscape:label="Ebene 1"
     inkscape:groupmode="layer"
     id="layer1"
     transform="translate(0,-288.53334)">
    <path
       inkscape:connector-curvature="0"
       style="fill:#3277d1;fill-opacity:1;stroke:#3277d1;stroke-width:0.70618641;stroke-miterlimit:4;stroke-dasharray:none;stroke-opacity:1;"
       d="m 6.8864698,293.26434 c -0.3683369,1.94012 -1.9742183,3.1906 -3.6588752,2.84903 -1.6846575,-0.3418 -2.73004669,-2.29962 -2.42513164,-4.20337 0.0467962,-0.29159 -0.34243999,-0.37872 -0.38927155,-0.0866 -0.35225563,2.19981 0.85009789,4.28395 2.73545859,4.74123 1.8855594,0.45724 3.7225092,-1.08198 4.1270701,-3.21357 0.054935,-0.29026 -0.3342706,-0.37643 -0.3892503,-0.0866 z"
       id="path4-2-1" />
    <path
       inkscape:connector-curvature="0"
       style="fill:#3277d1;fill-opacity:1;stroke:#3277d1;stroke-width:0.01843927;stroke-opacity:1"
       id="path2360-2"
       d="m 8.1206802,293.35017 c -0.08876,0.29583 -0.4045104,0.52811 -0.6910755,0.4188 l -0.3790024,0.81909 c -0.3106886,0.67146 -0.8773848,0.42848 -0.6651969,-0.28103 l 0.2518058,-0.84021 c -0.2790541,-0.1065 -0.4434442,-0.46108 -0.325892,-0.85357 l 0.8233139,-2.7473 c 0.071695,-0.23918 0.3579471,-0.14057 0.2808063,0.1171 l -0.6086408,2.03094 0.2372169,0.0905 0.614174,-2.04941 c 0.065871,-0.21982 0.3430261,-0.12989 0.270258,0.11309 l -0.6114009,2.04018 0.2452643,0.0935 0.61345,-2.04703 c 0.068884,-0.22949 0.3365554,-0.1375 0.2623066,0.10989 l -0.6106779,2.0378 0.2413169,0.0922 0.6134285,-2.04702 c 0.067961,-0.22714 0.3476425,-0.13052 0.2741483,0.11443 z"
       sodipodi:nodetypes="ccsscsssccssccssccccc" />
    <ellipse
       style="fill:#3277d1;fill-opacity:1;stroke:#3277d1;stroke-width:0.47149798;stroke-miterlimit:4;stroke-dasharray:none;stroke-opacity:1"
       cx="52.592602"
       cy="282.84753"
       id="circle6-1-5-0"
       rx="0.75869882"
       ry="0.958336"
       transform="matrix(0.97610744,0.21728846,-0.17230001,0.98504452,0,0)" />
    <ellipse
       style="fill:#3277d1;fill-opacity:1;stroke:#3277d1;stroke-width:0.47149798;stroke-miterlimit:4;stroke-dasharray:none;stroke-opacity:1"
       cx="55.136414"
       cy="282.78598"
       id="circle6-1-5-0-0"
       rx="0.75869882"
       ry="0.958336"
       transform="matrix(0.97610744,0.21728846,-0.17230001,0.98504452,0,0)" />
  </g>
</svg>
