<?xml version="1.0" encoding="UTF-8" standalone="no"?>
<!-- Created with Inkscape (http://www.inkscape.org/) -->

<svg
   xmlns:dc="http://purl.org/dc/elements/1.1/"
   xmlns:cc="http://creativecommons.org/ns#"
   xmlns:rdf="http://www.w3.org/1999/02/22-rdf-syntax-ns#"
   xmlns:svg="http://www.w3.org/2000/svg"
   xmlns="http://www.w3.org/2000/svg"
   xmlns:sodipodi="http://sodipodi.sourceforge.net/DTD/sodipodi-0.dtd"
   xmlns:inkscape="http://www.inkscape.org/namespaces/inkscape"
   width="32"
   height="32"
   viewBox="0 0 8.4666659 8.4666659"
   version="1.1"
   id="svg8"
   inkscape:version="0.92.3 (2405546, 2018-03-11)"
   sodipodi:docname="logo-hg_44.svg">
  <defs
     id="defs2" />
  <sodipodi:namedview
     id="base"
     pagecolor="#ffffff"
     bordercolor="#666666"
     borderopacity="1.0"
     inkscape:pageopacity="0.0"
     inkscape:pageshadow="2"
     inkscape:zoom="7.919596"
     inkscape:cx="11.562828"
     inkscape:cy="6.8841467"
     inkscape:document-units="mm"
     inkscape:current-layer="layer1"
     showgrid="false"
     inkscape:pagecheckerboard="true"
     units="px"
     inkscape:window-width="1360"
     inkscape:window-height="745"
     inkscape:window-x="-8"
     inkscape:window-y="-8"
     inkscape:window-maximized="1" />
  <metadata
     id="metadata5">
    <rdf:RDF>
      <cc:Work
         rdf:about="">
        <dc:format>image/svg+xml</dc:format>
        <dc:type
           rdf:resource="http://purl.org/dc/dcmitype/StillImage" />
        <dc:title></dc:title>
      </cc:Work>
    </rdf:RDF>
  </metadata>
  <g
     inkscape:label="Ebene 1"
     inkscape:groupmode="layer"
     id="layer1"
     transform="translate(0,-288.53334)">
    <g
       id="g1768"
       transform="translate(-4.7774428,1.4365859)">
      <rect
         inkscape:export-ydpi="899"
         inkscape:export-xdpi="899"
         inkscape:export-filename="C:\Users\dirkh\Desktop\circle6-1-5-4.png"
         y="288.87799"
         x="2.2489583"
         height="3.96875"
         width="3.96875"
         id="rect815"
         style="opacity:1;fill:#c85050;fill-opacity:1;fill-rule:nonzero;stroke:none;stroke-width:0.43194598;stroke-linecap:round;stroke-linejoin:round;stroke-miterlimit:4;stroke-dasharray:none;stroke-dashoffset:0;stroke-opacity:1;paint-order:fill markers stroke" />
      <path
         inkscape:export-ydpi="899"
         inkscape:export-xdpi="899"
         inkscape:export-filename="C:\Users\dirkh\Desktop\circle6-1-5-4.png"
         id="path4-2-1"
         d="m 5.6237012,290.58094 c -0.012666,0.8399 -0.6229982,1.50781 -1.3903964,1.52168 -0.7674268,0.0139 -1.3779772,-0.70273 -1.3903299,-1.52168 -0.00188,-0.12543 -0.1797941,-0.12563 -0.1779112,0 0.014264,0.94629 0.7036283,1.70078 1.5682316,1.71639 0.8646793,0.0156 1.5543573,-0.79359 1.5683076,-1.71639 0.00189,-0.12563 -0.1760188,-0.12543 -0.1779017,0 z"
         style="fill:#fdfefe;fill-opacity:1;stroke:#ffffff;stroke-width:0.20472512;stroke-miterlimit:4;stroke-dasharray:none;stroke-opacity:1"
         inkscape:connector-curvature="0" />
    </g>
    <g
       id="g1752"
       transform="translate(4.209495,-0.46771093)">
      <rect
         inkscape:export-ydpi="899"
         inkscape:export-xdpi="899"
         inkscape:export-filename="C:\Users\dirkh\Desktop\circle6-1-5-4.png"
         y="290.78229"
         x="2.2489583"
         height="3.96875"
         width="3.96875"
         id="rect815-6"
         style="opacity:1;fill:#5050c8;fill-opacity:1;fill-rule:nonzero;stroke:none;stroke-width:0.43194598;stroke-linecap:round;stroke-linejoin:round;stroke-miterlimit:4;stroke-dasharray:none;stroke-dashoffset:0;stroke-opacity:1;paint-order:fill markers stroke" />
      <g
         inkscape:export-ydpi="899"
         inkscape:export-xdpi="899"
         inkscape:export-filename="C:\Users\dirkh\Desktop\circle6-1-5-4.png"
         style="fill:#ffffff;stroke:none"
         id="g6"
         transform="matrix(2.7095433e-4,0,0,-2.7095433e-4,2.7290326,294.5005)">
        <path
           style="fill:#ffffff"
           inkscape:connector-curvature="0"
           id="path4"
           d="m 2290,12789 c -450,-37 -921,-185 -1262,-396 C 447,12034 113,11504 18,10795 7,10713 5,9945 5,6565 V 2435 l 27,-100 c 15,-55 51,-147 80,-205 45,-90 65,-118 143,-195 64,-65 110,-101 160,-127 121,-62 260,-98 377,-98 h 58 v -429 c 0,-541 13,-647 105,-836 105,-218 271,-356 501,-415 168,-44 408,-35 577,21 216,72 389,256 474,504 48,142 53,204 53,696 v 459 h 2990 2990 v -459 c 0,-492 5,-554 53,-696 129,-378 425,-571 847,-552 339,16 571,161 705,442 92,194 105,294 105,834 v 428 l 73,6 c 39,4 108,16 152,28 310,81 516,276 597,564 l 23,80 3,4095 c 2,2882 0,4139 -8,4245 -28,390 -107,711 -244,992 -293,600 -801,943 -1566,1060 -108,16 -330,17 -3500,19 -1862,1 -3432,-2 -3490,-7 z m 6101,-1280 c 77,-26 131,-91 145,-176 15,-94 -54,-200 -149,-228 -45,-13 -388,-15 -2837,-15 -2449,0 -2792,2 -2837,15 -63,19 -126,84 -143,146 -29,106 32,221 135,257 44,15 5640,16 5686,1 z m 1255,-1296 c 268,-73 452,-243 542,-503 59,-172 57,-104 57,-1595 0,-1283 -1,-1375 -18,-1454 -43,-201 -117,-343 -242,-467 -97,-97 -210,-158 -356,-195 l -94,-24 H 5550 1565 l -94,24 c -146,37 -259,98 -356,195 -122,120 -193,256 -241,457 -17,69 -18,169 -21,1399 -4,1376 -3,1409 38,1575 25,102 104,264 163,335 120,145 294,240 491,269 33,5 1826,8 4040,7 l 3980,-1 z M 1919,4239 c 475,-121 750,-620 599,-1089 -117,-366 -477,-612 -858,-586 -233,15 -429,108 -582,276 -262,287 -296,712 -83,1042 195,301 572,447 924,357 z m 7578,21 c 193,-26 363,-109 499,-245 180,-179 274,-446 244,-694 -52,-423 -375,-729 -800,-757 -381,-26 -741,220 -858,586 -96,298 -25,618 186,842 194,206 460,303 729,268 z" />
      </g>
    </g>
    <g
       id="g1764"
       transform="translate(-0.28397417,-0.46771093)">
      <rect
         inkscape:export-ydpi="899"
         inkscape:export-xdpi="899"
         inkscape:export-filename="C:\Users\dirkh\Desktop\circle6-1-5-4.png"
         y="290.78229"
         x="2.2489583"
         height="3.96875"
         width="3.96875"
         id="rect815-5"
         style="opacity:1;fill:#50c850;fill-opacity:1;fill-rule:nonzero;stroke:none;stroke-width:0.43194598;stroke-linecap:round;stroke-linejoin:round;stroke-miterlimit:4;stroke-dasharray:none;stroke-dashoffset:0;stroke-opacity:1;paint-order:fill markers stroke" />
      <g
         transform="matrix(1.1699322,0,0,1.1699322,8.3485498,-52.681923)"
         id="g1758">
        <path
           style="fill:#ffffff;stroke:none;stroke-width:0.00030675"
           inkscape:connector-curvature="0"
           id="path4-5"
           d="m -2.5560167,293.70855 c -0.022358,-0.0111 -0.045106,-0.0122 -0.06659,-0.002 -0.01586,0.007 -0.021447,0.0128 -0.4483269,0.43966 -0.4674259,0.46743 -0.4466041,0.44574 -0.4715476,0.49411 -0.049451,0.0954 -0.034486,0.21191 0.037959,0.30041 l 0.013335,0.0162 -0.7784585,0.77933 -0.7784607,0.77976 -0.011059,0.021 c -0.021008,0.0397 -0.03079,0.0794 -0.028412,0.11517 0.00393,0.0638 0.037757,0.12275 0.090197,0.15794 0.067925,0.0453 0.1464431,0.0466 0.2225462,0.004 l 0.021673,-0.0121 0.7775984,-0.7763 0.7773745,-0.77651 0.013994,0.0112 c 0.076979,0.0623 0.1780448,0.0788 0.2728591,0.0442 0.056399,-0.0204 0.00715,0.0258 0.5095079,-0.47654 l 0.4468137,-0.44681 0.00414,-0.0133 c 0.010415,-0.0343 -6.499e-4,-0.0649 -0.029958,-0.0837 -0.01671,-0.0111 -0.032547,-0.0143 -0.053169,-0.0106 l -0.015839,0.003 -0.3234023,0.32124 -0.3236145,0.32145 -0.044464,-0.0432 -0.044462,-0.0436 0.3177572,-0.31862 c 0.2587656,-0.26007 0.3186294,-0.32123 0.3234094,-0.33078 0.00343,-0.006 0.00585,-0.0206 0.00565,-0.0317 1.98e-5,-0.0304 -0.01474,-0.0525 -0.041879,-0.0627 -0.020029,-0.007 -0.034899,-0.007 -0.053394,0.001 -0.01586,0.007 -0.021234,0.0126 -0.3335918,0.32492 l -0.3177596,0.31776 -0.04555,-0.0455 -0.04555,-0.0456 0.3190653,-0.31993 c 0.3017082,-0.30301 0.3188415,-0.32058 0.3233953,-0.3325 0.010416,-0.0278 0.00476,-0.0538 -0.016709,-0.0753 -0.00803,-0.008 -0.017899,-0.0151 -0.02615,-0.0177 -0.016446,-0.007 -0.04337,-0.004 -0.058357,0.005 -0.0088,0.005 -0.1045457,0.0998 -0.3275177,0.32276 l -0.315808,0.3158 -0.043407,-0.0434 -0.04338,-0.0434 0.311035,-0.31104 c 0.2015042,-0.2015 0.3140756,-0.31581 0.3203618,-0.3247 0.020824,-0.0304 0.019718,-0.0657 -0.00259,-0.0915 -0.00651,-0.007 -0.015183,-0.0152 -0.019634,-0.0168 z" />
        <path
           style="fill:#ffffff;stroke:none;stroke-width:0.00030675"
           inkscape:connector-curvature="0"
           id="path6"
           d="m -4.9687492,293.99503 c -0.033179,0.0519 -0.049885,0.10759 -0.049907,0.16743 -2.242e-4,0.0588 0.012551,0.10582 0.043167,0.1616 0.028597,0.0516 -0.00823,0.0139 0.7715143,0.79364 l 0.7255411,0.72554 0.079169,-0.0779 0.079167,-0.0783 0.4847737,0.4839 0.4847784,0.48348 0.021673,0.0121 c 0.030773,0.0169 0.064837,0.0267 0.097571,0.0277 0.059895,0.002 0.1095238,-0.0184 0.1533427,-0.0627 0.025594,-0.0256 0.038704,-0.0472 0.05057,-0.0791 0.019059,-0.0551 0.013654,-0.10912 -0.017133,-0.16767 l -0.011059,-0.021 -1.204238,-1.20554 c -0.8786696,-0.87954 -1.2107506,-1.21075 -1.2283152,-1.22485 -0.1173451,-0.0935 -0.2483514,-0.10867 -0.370038,-0.0425 -0.034674,0.0191 -0.088715,0.0696 -0.110902,0.10383 z" />
      </g>
    </g>
  </g>
</svg>
