<?xml version="1.0" encoding="UTF-8" standalone="no"?>
<!-- Created with Inkscape (http://www.inkscape.org/) -->

<svg
   xmlns:dc="http://purl.org/dc/elements/1.1/"
   xmlns:cc="http://creativecommons.org/ns#"
   xmlns:rdf="http://www.w3.org/1999/02/22-rdf-syntax-ns#"
   xmlns:svg="http://www.w3.org/2000/svg"
   xmlns="http://www.w3.org/2000/svg"
   xmlns:sodipodi="http://sodipodi.sourceforge.net/DTD/sodipodi-0.dtd"
   xmlns:inkscape="http://www.inkscape.org/namespaces/inkscape"
   width="32"
   height="32"
   viewBox="0 0 8.4666659 8.4666659"
   version="1.1"
   id="svg8"
   inkscape:version="0.92.3 (2405546, 2018-03-11)"
   sodipodi:docname="logo-hg_77.svg">
  <defs
     id="defs2" />
  <sodipodi:namedview
     id="base"
     pagecolor="#ffffff"
     bordercolor="#666666"
     borderopacity="1.0"
     inkscape:pageopacity="0.0"
     inkscape:pageshadow="2"
     inkscape:zoom="8.4965735"
     inkscape:cx="11.562762"
     inkscape:cy="11.934909"
     inkscape:document-units="mm"
     inkscape:current-layer="layer1"
     showgrid="false"
     inkscape:pagecheckerboard="true"
     units="px"
     inkscape:window-width="1360"
     inkscape:window-height="745"
     inkscape:window-x="-8"
     inkscape:window-y="-8"
     inkscape:window-maximized="1" />
  <metadata
     id="metadata5">
    <rdf:RDF>
      <cc:Work
         rdf:about="">
        <dc:format>image/svg+xml</dc:format>
        <dc:type
           rdf:resource="http://purl.org/dc/dcmitype/StillImage" />
        <dc:title />
      </cc:Work>
    </rdf:RDF>
  </metadata>
  <g
     inkscape:label="Ebene 1"
     inkscape:groupmode="layer"
     id="layer1"
     transform="translate(0,-288.53334)">
    <rect
       style="opacity:1;fill:#3366cc;fill-opacity:1;fill-rule:nonzero;stroke:none;stroke-width:0.43194598;stroke-linecap:round;stroke-linejoin:round;stroke-miterlimit:4;stroke-dasharray:none;stroke-dashoffset:0;stroke-opacity:1;paint-order:fill markers stroke"
       id="rect815-5"
       width="3.96875"
       height="3.96875"
       x="4.2070646"
       y="290.71939"
       inkscape:export-filename="C:\Users\dirkh\Desktop\circle6-1-5-4.png"
       inkscape:export-xdpi="899"
       inkscape:export-ydpi="899" />
    <g
       id="g1758"
       transform="matrix(1.0210184,0,0,1.0210184,9.7828541,-8.7746857)">
      <path
         d="m -2.5560167,293.70855 c -0.022358,-0.0111 -0.045106,-0.0122 -0.06659,-0.002 -0.01586,0.007 -0.021447,0.0128 -0.4483269,0.43966 -0.4674259,0.46743 -0.4466041,0.44574 -0.4715476,0.49411 -0.049451,0.0954 -0.034486,0.21191 0.037959,0.30041 l 0.013335,0.0162 -0.7784585,0.77933 -0.7784607,0.77976 -0.011059,0.021 c -0.021008,0.0397 -0.03079,0.0794 -0.028412,0.11517 0.00393,0.0638 0.037757,0.12275 0.090197,0.15794 0.067925,0.0453 0.1464431,0.0466 0.2225462,0.004 l 0.021673,-0.0121 0.7775984,-0.7763 0.7773745,-0.77651 0.013994,0.0112 c 0.076979,0.0623 0.1780448,0.0788 0.2728591,0.0442 0.056399,-0.0204 0.00715,0.0258 0.5095079,-0.47654 l 0.4468137,-0.44681 0.00414,-0.0133 c 0.010415,-0.0343 -6.499e-4,-0.0649 -0.029958,-0.0837 -0.01671,-0.0111 -0.032547,-0.0143 -0.053169,-0.0106 l -0.015839,0.003 -0.3234023,0.32124 -0.3236145,0.32145 -0.044464,-0.0432 -0.044462,-0.0436 0.3177572,-0.31862 c 0.2587656,-0.26007 0.3186294,-0.32123 0.3234094,-0.33078 0.00343,-0.006 0.00585,-0.0206 0.00565,-0.0317 1.98e-5,-0.0304 -0.01474,-0.0525 -0.041879,-0.0627 -0.020029,-0.007 -0.034899,-0.007 -0.053394,0.001 -0.01586,0.007 -0.021234,0.0126 -0.3335918,0.32492 l -0.3177596,0.31776 -0.04555,-0.0455 -0.04555,-0.0456 0.3190653,-0.31993 c 0.3017082,-0.30301 0.3188415,-0.32058 0.3233953,-0.3325 0.010416,-0.0278 0.00476,-0.0538 -0.016709,-0.0753 -0.00803,-0.008 -0.017899,-0.0151 -0.02615,-0.0177 -0.016446,-0.007 -0.04337,-0.004 -0.058357,0.005 -0.0088,0.005 -0.1045457,0.0998 -0.3275177,0.32276 l -0.315808,0.3158 -0.043407,-0.0434 -0.04338,-0.0434 0.311035,-0.31104 c 0.2015042,-0.2015 0.3140756,-0.31581 0.3203618,-0.3247 0.020824,-0.0304 0.019718,-0.0657 -0.00259,-0.0915 -0.00651,-0.007 -0.015183,-0.0152 -0.019634,-0.0168 z"
         id="path4-5"
         inkscape:connector-curvature="0"
         style="fill:#ffffff;stroke:none;stroke-width:0.00030675" />
      <path
         d="m -4.9687492,293.99503 c -0.033179,0.0519 -0.049885,0.10759 -0.049907,0.16743 -2.242e-4,0.0588 0.012551,0.10582 0.043167,0.1616 0.028597,0.0516 -0.00823,0.0139 0.7715143,0.79364 l 0.7255411,0.72554 0.079169,-0.0779 0.079167,-0.0783 0.4847737,0.4839 0.4847784,0.48348 0.021673,0.0121 c 0.030773,0.0169 0.064837,0.0267 0.097571,0.0277 0.059895,0.002 0.1095238,-0.0184 0.1533427,-0.0627 0.025594,-0.0256 0.038704,-0.0472 0.05057,-0.0791 0.019059,-0.0551 0.013654,-0.10912 -0.017133,-0.16767 l -0.011059,-0.021 -1.204238,-1.20554 c -0.8786696,-0.87954 -1.2107506,-1.21075 -1.2283152,-1.22485 -0.1173451,-0.0935 -0.2483514,-0.10867 -0.370038,-0.0425 -0.034674,0.0191 -0.088715,0.0696 -0.110902,0.10383 z"
         id="path6"
         inkscape:connector-curvature="0"
         style="fill:#ffffff;stroke:none;stroke-width:0.00030675" />
    </g>
    <rect
       style="opacity:1;fill:#6699ff;fill-opacity:1;fill-rule:nonzero;stroke:none;stroke-width:0.43194598;stroke-linecap:round;stroke-linejoin:round;stroke-miterlimit:4;stroke-dasharray:none;stroke-dashoffset:0;stroke-opacity:1;paint-order:fill markers stroke"
       id="rect815-1"
       width="3.96875"
       height="3.96875"
       x="0.23831423"
       y="290.71939"
       inkscape:export-filename="C:\Users\dirkh\Desktop\circle6-1-5-4.png"
       inkscape:export-xdpi="899"
       inkscape:export-ydpi="899" />
    <path
       d="m 2.2226894,291.22096 c -0.8189878,0 -1.48282271,0.66383 -1.48282271,1.48282 0,0.81899 0.66383491,1.48282 1.48282271,1.48282 0.8189875,0 1.4828224,-0.66383 1.4828224,-1.48282 0,-0.81899 -0.6638349,-1.48282 -1.4828224,-1.48282 z m 0,2.75381 c -0.7008657,0 -1.27099171,-0.57013 -1.27099171,-1.27099 0,-0.70086 0.57012601,-1.27099 1.27099171,-1.27099 0.7008654,0 1.2709912,0.57013 1.2709912,1.27099 0,0.70086 -0.5701258,1.27099 -1.2709912,1.27099 z m -0.6354959,-1.69465 c 0,-0.17543 0.094749,-0.31775 0.2118322,-0.31775 0.1170835,0 0.2118315,0.14232 0.2118315,0.31775 0,0.17563 -0.094748,0.31775 -0.2118315,0.31775 -0.117083,0 -0.2118322,-0.14212 -0.2118322,-0.31775 z m 0.8473279,0 c 0,-0.17543 0.094748,-0.31775 0.2118312,-0.31775 0.1170832,0 0.2118323,0.14232 0.2118323,0.31775 0,0.17563 -0.094749,0.31775 -0.2118323,0.31775 -0.1170833,0 -0.2118312,-0.14212 -0.2118312,-0.31775 z m 0.6354946,0.63549 c -0.109848,0.3765 -0.4551071,0.63549 -0.8473266,0.63549 -0.3923261,0 -0.737479,-0.25899 -0.8473273,-0.63549"
       id="path2"
       inkscape:connector-curvature="0"
       style="fill:#ffffff;fill-opacity:1;stroke-width:0.00661975" />
  </g>
</svg>
