<?xml version="1.0" encoding="UTF-8" standalone="no"?>
<!-- Created with Inkscape (http://www.inkscape.org/) -->

<svg
   xmlns:dc="http://purl.org/dc/elements/1.1/"
   xmlns:cc="http://creativecommons.org/ns#"
   xmlns:rdf="http://www.w3.org/1999/02/22-rdf-syntax-ns#"
   xmlns:svg="http://www.w3.org/2000/svg"
   xmlns="http://www.w3.org/2000/svg"
   xmlns:sodipodi="http://sodipodi.sourceforge.net/DTD/sodipodi-0.dtd"
   xmlns:inkscape="http://www.inkscape.org/namespaces/inkscape"
   width="32"
   height="32"
   viewBox="0 0 8.4666659 8.4666659"
   version="1.1"
   id="svg8"
   inkscape:version="0.92.3 (2405546, 2018-03-11)"
   sodipodi:docname="logo-hg_101.svg">
  <defs
     id="defs2" />
  <sodipodi:namedview
     id="base"
     pagecolor="#ffffff"
     bordercolor="#666666"
     borderopacity="1.0"
     inkscape:pageopacity="0.0"
     inkscape:pageshadow="2"
     inkscape:zoom="7.919596"
     inkscape:cx="11.562828"
     inkscape:cy="6.8841467"
     inkscape:document-units="mm"
     inkscape:current-layer="layer1"
     showgrid="false"
     inkscape:pagecheckerboard="true"
     units="px"
     inkscape:window-width="1360"
     inkscape:window-height="745"
     inkscape:window-x="-8"
     inkscape:window-y="-8"
     inkscape:window-maximized="1" />
  <metadata
     id="metadata5">
    <rdf:RDF>
      <cc:Work
         rdf:about="">
        <dc:format>image/svg+xml</dc:format>
        <dc:type
           rdf:resource="http://purl.org/dc/dcmitype/StillImage" />
        <dc:title></dc:title>
      </cc:Work>
    </rdf:RDF>
  </metadata>
  <g
     inkscape:label="Ebene 1"
     inkscape:groupmode="layer"
     id="layer1"
     transform="translate(0,-288.53334)">
    <rect
       style="opacity:1;fill:#c85050;fill-opacity:1;fill-rule:nonzero;stroke:none;stroke-width:0.43194598;stroke-linecap:round;stroke-linejoin:round;stroke-miterlimit:4;stroke-dasharray:none;stroke-dashoffset:0;stroke-opacity:1;paint-order:fill markers stroke"
       id="rect815"
       width="3.96875"
       height="3.96875"
       x="1.7812366"
       y="300.30377"
       inkscape:export-filename="C:\Users\dirkh\Desktop\circle6-1-5-4.png"
       inkscape:export-xdpi="899"
       inkscape:export-ydpi="899" />
    <g
       id="g1752"
       transform="translate(8.5192161,9.5214876)">
      <rect
         inkscape:export-ydpi="899"
         inkscape:export-xdpi="899"
         inkscape:export-filename="C:\Users\dirkh\Desktop\circle6-1-5-4.png"
         y="290.78229"
         x="2.2489583"
         height="3.96875"
         width="3.96875"
         id="rect815-6"
         style="opacity:1;fill:#5050c8;fill-opacity:1;fill-rule:nonzero;stroke:none;stroke-width:0.43194598;stroke-linecap:round;stroke-linejoin:round;stroke-miterlimit:4;stroke-dasharray:none;stroke-dashoffset:0;stroke-opacity:1;paint-order:fill markers stroke" />
      <g
         inkscape:export-ydpi="899"
         inkscape:export-xdpi="899"
         inkscape:export-filename="C:\Users\dirkh\Desktop\circle6-1-5-4.png"
         style="fill:#ffffff;stroke:none"
         id="g6"
         transform="matrix(2.7095433e-4,0,0,-2.7095433e-4,2.7290326,294.5005)">
        <path
           style="fill:#ffffff"
           inkscape:connector-curvature="0"
           id="path4"
           d="m 2290,12789 c -450,-37 -921,-185 -1262,-396 C 447,12034 113,11504 18,10795 7,10713 5,9945 5,6565 V 2435 l 27,-100 c 15,-55 51,-147 80,-205 45,-90 65,-118 143,-195 64,-65 110,-101 160,-127 121,-62 260,-98 377,-98 h 58 v -429 c 0,-541 13,-647 105,-836 105,-218 271,-356 501,-415 168,-44 408,-35 577,21 216,72 389,256 474,504 48,142 53,204 53,696 v 459 h 2990 2990 v -459 c 0,-492 5,-554 53,-696 129,-378 425,-571 847,-552 339,16 571,161 705,442 92,194 105,294 105,834 v 428 l 73,6 c 39,4 108,16 152,28 310,81 516,276 597,564 l 23,80 3,4095 c 2,2882 0,4139 -8,4245 -28,390 -107,711 -244,992 -293,600 -801,943 -1566,1060 -108,16 -330,17 -3500,19 -1862,1 -3432,-2 -3490,-7 z m 6101,-1280 c 77,-26 131,-91 145,-176 15,-94 -54,-200 -149,-228 -45,-13 -388,-15 -2837,-15 -2449,0 -2792,2 -2837,15 -63,19 -126,84 -143,146 -29,106 32,221 135,257 44,15 5640,16 5686,1 z m 1255,-1296 c 268,-73 452,-243 542,-503 59,-172 57,-104 57,-1595 0,-1283 -1,-1375 -18,-1454 -43,-201 -117,-343 -242,-467 -97,-97 -210,-158 -356,-195 l -94,-24 H 5550 1565 l -94,24 c -146,37 -259,98 -356,195 -122,120 -193,256 -241,457 -17,69 -18,169 -21,1399 -4,1376 -3,1409 38,1575 25,102 104,264 163,335 120,145 294,240 491,269 33,5 1826,8 4040,7 l 3980,-1 z M 1919,4239 c 475,-121 750,-620 599,-1089 -117,-366 -477,-612 -858,-586 -233,15 -429,108 -582,276 -262,287 -296,712 -83,1042 195,301 572,447 924,357 z m 7578,21 c 193,-26 363,-109 499,-245 180,-179 274,-446 244,-694 -52,-423 -375,-729 -800,-757 -381,-26 -741,220 -858,586 -96,298 -25,618 186,842 194,206 460,303 729,268 z" />
      </g>
    </g>
    <rect
       style="opacity:1;fill:#50c850;fill-opacity:1;fill-rule:nonzero;stroke:none;stroke-width:0.43194598;stroke-linecap:round;stroke-linejoin:round;stroke-miterlimit:4;stroke-dasharray:none;stroke-dashoffset:0;stroke-opacity:1;paint-order:fill markers stroke"
       id="rect815-5"
       width="3.96875"
       height="3.96875"
       x="6.2747054"
       y="300.30377"
       inkscape:export-filename="C:\Users\dirkh\Desktop\circle6-1-5-4.png"
       inkscape:export-xdpi="899"
       inkscape:export-ydpi="899" />
    <g
       id="g892"
       transform="rotate(-55,4.2333331,292.76666)">
      <path
         d="m 8.4666662,292.76666 a 4.2333331,4.2333331 0 0 1 -2.1166666,3.66618 4.2333331,4.2333331 0 0 1 -4.2333332,0 A 4.2333331,4.2333331 0 0 1 0,292.76666 l 4.2333331,0 z"
         sodipodi:end="3.1415927"
         sodipodi:start="0"
         sodipodi:ry="4.2333331"
         sodipodi:rx="4.2333331"
         sodipodi:cy="292.76666"
         sodipodi:cx="4.2333331"
         sodipodi:type="arc"
         id="path873"
         style="opacity:1;fill:#c85050;fill-opacity:1;fill-rule:nonzero;stroke:none;stroke-width:0.10728412;stroke-linecap:round;stroke-linejoin:round;stroke-miterlimit:4;stroke-dasharray:none;stroke-dashoffset:0;stroke-opacity:1;paint-order:fill markers stroke" />
      <path
         transform="scale(1,-1)"
         d="m 8.4666662,-292.76666 a 4.2333331,4.2333331 0 0 1 -2.1166666,3.66617 4.2333331,4.2333331 0 0 1 -4.2333332,0 A 4.2333331,4.2333331 0 0 1 0,-292.76666 l 4.2333331,0 z"
         sodipodi:end="3.1415927"
         sodipodi:start="0"
         sodipodi:ry="4.2333331"
         sodipodi:rx="4.2333331"
         sodipodi:cy="-292.76666"
         sodipodi:cx="4.2333331"
         sodipodi:type="arc"
         id="path873-8"
         style="opacity:1;fill:#50c850;fill-opacity:1;fill-rule:nonzero;stroke:none;stroke-width:0.10728412;stroke-linecap:round;stroke-linejoin:round;stroke-miterlimit:4;stroke-dasharray:none;stroke-dashoffset:0;stroke-opacity:1;paint-order:fill markers stroke" />
    </g>
    <path
       inkscape:connector-curvature="0"
       style="fill:#fdfefe;fill-opacity:1;stroke:#ffffff;stroke-width:0.20472512;stroke-miterlimit:4;stroke-dasharray:none;stroke-opacity:1"
       d="m 6.7930054,294.22249 c -0.012666,0.8399 -0.6229982,1.50781 -1.3903964,1.52168 -0.7674268,0.0139 -1.3779772,-0.70273 -1.3903299,-1.52168 -0.00188,-0.12543 -0.1797941,-0.12563 -0.1779112,0 0.014264,0.94629 0.7036283,1.70078 1.5682316,1.71639 0.8646793,0.0156 1.5543573,-0.79359 1.5683076,-1.71639 0.00189,-0.12563 -0.1760188,-0.12543 -0.1779017,0 z"
       id="path4-2-1"
       inkscape:export-filename="C:\Users\dirkh\Desktop\circle6-1-5-4.png"
       inkscape:export-xdpi="899"
       inkscape:export-ydpi="899" />
    <path
       style="fill:#ffffff;stroke:none;stroke-width:0.00035888"
       inkscape:connector-curvature="0"
       id="path4-5"
       d="m -0.98494684,299.7437 c -0.026157,-0.013 -0.052771,-0.0143 -0.077906,-0.002 -0.018555,0.008 -0.025092,0.015 -0.5245121,0.51438 -0.5468566,0.54686 -0.5224965,0.52148 -0.5516787,0.57807 -0.057854,0.11161 -0.040346,0.24792 0.044409,0.35146 l 0.015601,0.019 -0.9107437,0.91177 -0.9107462,0.91226 -0.012938,0.0246 c -0.024578,0.0465 -0.036022,0.0929 -0.03324,0.13474 0.0046,0.0746 0.044173,0.14361 0.1055244,0.18478 0.079468,0.053 0.1713285,0.0545 0.2603639,0.005 l 0.025356,-0.0142 0.9097374,-0.90821 0.9094754,-0.90847 0.016372,0.0131 c 0.09006,0.0729 0.2083003,0.0922 0.3192266,0.0517 0.065983,-0.0239 0.00836,0.0302 0.59608966,-0.55752 l 0.5227417,-0.52274 0.00484,-0.0156 c 0.012185,-0.0401 -7.604e-4,-0.0759 -0.035049,-0.0979 -0.01955,-0.013 -0.038078,-0.0167 -0.062204,-0.0124 l -0.018531,0.003 -0.3783587,0.37583 -0.37860696,0.37608 -0.05202,-0.0505 -0.052018,-0.051 0.37175426,-0.37277 c 0.3027383,-0.30426 0.3727748,-0.37581 0.3783671,-0.38699 0.00401,-0.007 0.00684,-0.0241 0.00661,-0.0371 2.32e-5,-0.0356 -0.017245,-0.0614 -0.048996,-0.0734 -0.023432,-0.008 -0.040829,-0.008 -0.062467,10e-4 -0.018555,0.008 -0.024842,0.0147 -0.3902798,0.38014 l -0.37175716,0.37175 -0.05329,-0.0532 -0.05329,-0.0533 0.3732848,-0.37429 c 0.35297806,-0.3545 0.37302286,-0.37506 0.37835046,-0.389 0.012186,-0.0325 0.00557,-0.063 -0.019548,-0.0881 -0.00939,-0.009 -0.020941,-0.0177 -0.030594,-0.0207 -0.019241,-0.008 -0.05074,-0.005 -0.068274,0.006 -0.010295,0.006 -0.1223114,0.11676 -0.38317346,0.37761 l -0.369474,0.36946 -0.050783,-0.0508 -0.050752,-0.0508 0.3638899,-0.36389 c 0.2357462,-0.23574 0.36744706,-0.36948 0.37480156,-0.37988 0.024363,-0.0356 0.023069,-0.0769 -0.00303,-0.10705 -0.00762,-0.008 -0.017763,-0.0178 -0.02297,-0.0197 z" />
    <g
       transform="matrix(-0.76200111,-0.55075174,0.53355892,-0.78655501,-152.32406,523.61769)"
       id="g1497">
      <path
         sodipodi:nodetypes="ccsscsssccssccssccccc"
         d="m 3.2266987,293.63309 c 0,0.32018 -0.2905568,0.66294 -0.6673155,0.66294 l -1.0245122,0.003 c -0.7985565,0.002 1.0362628,-0.0234 0.2378663,-0.009 l -0.2549918,0.005 c -0.3668977,0 -0.68622292,-0.28361 -0.68622292,-0.70859 v -2.97412 c 0,-0.25888 0.37272282,-0.26889 0.37272282,0.0102 v 2.19863 h 0.3119812 v -2.21863 c 0,-0.23794 0.358786,-0.25323 0.358786,0.0102 v 2.20861 h 0.322382 v -2.21599 c 0,-0.24845 0.3483854,-0.25846 0.3483854,0.0103 v 2.20603 h 0.3171929 l -1.07e-5,-2.21602 c 1.07e-5,-0.24585 0.3639228,-0.25584 0.3639228,0.0102 z"
         id="path2360-2"
         style="fill:#ffffff;fill-opacity:0.99215686;stroke:none;stroke-width:0.02083946"
         inkscape:connector-curvature="0" />
      <rect
         y="293.76932"
         x="1.5097275"
         height="3.1399586"
         width="1.0389524"
         id="rect1944"
         style="opacity:1;fill:#ffffff;fill-opacity:1;fill-rule:nonzero;stroke:none;stroke-width:0.23319675;stroke-linecap:butt;stroke-linejoin:round;stroke-miterlimit:4;stroke-dasharray:none;stroke-dashoffset:0;stroke-opacity:1;paint-order:stroke fill markers" />
    </g>
  </g>
</svg>
